<svg width="1728" height="1590" viewBox="0 0 1728 1590" fill="none" xmlns="http://www.w3.org/2000/svg">
<path d="M1796.32 1522.02C1782.81 1541.88 1739.35 1582.68 1673.55 1587.01C1591.29 1592.43 1522.54 1582.95 1488.17 1577.54C1453.79 1572.12 1420.64 1561.29 1389.95 1561.29C1359.26 1561.29 1311.38 1570.77 1279.46 1530.14C1247.54 1489.52 1240.17 1438.07 1216.85 1389.32C1193.52 1340.57 1137.05 1286.41 1078.12 1237.66C1019.19 1188.92 1000.77 1115.8 939.388 1110.38C890.28 1106.05 821.53 1141.98 793.293 1160.48C773.24 1176.73 727.979 1209.23 707.354 1209.23C681.573 1209.23 668.068 1206.52 661.93 1237.66C655.791 1268.81 649.653 1286.41 633.693 1302.66C621.585 1314.99 609.257 1289.32 608.014 1286.63C607.94 1286.48 607.856 1286.35 607.735 1286.23C602.918 1281.16 588.648 1262.41 568.5 1226.06C543 1180.06 566 1188.06 522 1169.56C478 1151.06 523 1162.56 462 1130.06C401 1097.56 456.5 1112.06 366.5 1091.06C276.5 1070.06 258.5 1070.56 244 1035.06C229.5 999.56 248.5 988.06 194 977.56C139.5 967.06 170 999.06 123.5 964.56C77 930.06 95.5 927.56 60 922.56C31.7631 918.583 13.3787 905.38 7.59889 899.167C7.53018 899.093 7.45883 899.03 7.37709 898.971L-25 875.56" stroke="white" stroke-opacity="0.05"/>
<path d="M1796.32 1408.8C1778.72 1451.22 1731.74 1537.98 1684.6 1545.56C1625.67 1555.04 1574.11 1511.71 1502.9 1492.75C1431.69 1473.79 1391.18 1468.38 1343.3 1468.38C1295.42 1468.38 1280.69 1406.09 1263.5 1376.3C1246.31 1346.51 1168.97 1285.58 1122.32 1232.77C1075.66 1179.96 986.041 1091.94 919.746 1079.76C853.45 1067.57 849.767 1086.53 811.709 1101.42C773.65 1116.32 745.414 1101.42 718.404 1101.42C691.395 1101.42 665.614 1179.96 647.198 1208.39C632.78 1230.66 616.401 1218.42 609.572 1209.01C609.294 1208.62 608.86 1208.39 608.388 1208.35C600.229 1207.64 584.153 1199.81 579.5 1173.06C573.5 1138.56 584.5 1150.06 553.5 1093.56C522.529 1037.11 555.938 1075.99 513.618 1018.72C513.544 1018.62 513.444 1018.51 513.347 1018.44C410.06 934.096 470.966 971.04 402 931.06C333.066 891.098 377.914 887.567 315.679 882.574C315.566 882.565 315.439 882.541 315.332 882.507C113.018 818.568 145.987 833.489 100.5 794.5C55 755.5 81.5 744 37.5 741.5C2.3 739.5 -5.83333 685.333 -15.5 680" stroke="white" stroke-opacity="0.1"/>
<path d="M1795.09 1393.59C1770.13 1420.22 1706.7 1474.03 1652.68 1476.19C1585.15 1478.9 1507.81 1473.48 1470.98 1462.65C1434.15 1451.82 1402.23 1407.13 1359.26 1407.13C1316.29 1407.13 1259.82 1327.24 1235.26 1296.1C1210.71 1264.96 1064.61 1099.76 1021.64 1079.45C978.675 1059.14 927.112 1068.62 870.638 1071.32C814.164 1074.03 788.382 1049.66 754.007 1000.91C719.632 952.166 702.444 1019.87 702.444 1040.18C702.444 1060.49 699.989 1097.05 686.484 1099.76C672.979 1102.47 661.93 1126.84 647.198 1162.05C635.412 1190.21 616.915 1173.78 609.139 1162.05C604.926 1157.05 594.6 1141.86 587 1121.06C577.5 1095.06 550.5 1077.56 553.5 1032.56C556.5 987.56 517.5 970.56 522 948.56C526.5 926.56 498.5 873.56 434.5 862.56C370.5 851.56 355 853.56 306.5 862.56C258 871.56 252 889.06 181.5 862.56C111 836.06 95.5 843.06 73 805.06C50.5 767.06 40.5 759.56 11.5 750.06C-11.7 742.46 -36.5 713.893 -46 700.56" stroke="white" stroke-opacity="0.13"/>
<path d="M605.455 1082.61C618.141 1084.87 645.232 1079.09 652.107 1037.93C660.701 986.475 660.701 935.021 692.621 916.064C724.541 897.107 744.184 875.442 782.243 902.523C820.301 929.604 821.529 986.476 884.141 986.476C946.754 986.476 1002 1013.56 1036.38 1025.74C1070.75 1037.93 1263.5 1273.54 1291.74 1314.16C1319.97 1354.78 1402.23 1406.24 1429.24 1406.24C1456.25 1406.24 1525 1444.15 1606.02 1442.8C1670.76 1441.72 1742.52 1403.63 1770.42 1384.65C1770.5 1384.6 1770.57 1384.54 1770.63 1384.47L1796.32 1358.85" stroke="white" stroke-opacity="0.15"/>
<path d="M1800 1187.15C1784.45 1244.02 1743.53 1361.55 1704.24 1376.72C1655.13 1395.68 1642.86 1401.09 1572.88 1394.32C1502.9 1387.55 1502.9 1394.32 1466.07 1394.32C1429.24 1394.32 1397.32 1376.72 1370.31 1341.51C1343.3 1306.31 1340.84 1281.93 1305.24 1226.42C1269.64 1170.9 1224.21 1142.47 1180.02 1100.49C1135.82 1058.51 1052.34 986.747 1009.37 936.646C966.397 886.545 895.19 874.359 860.815 867.588C826.44 860.818 738.046 854.048 699.987 867.588C669.541 878.421 624.28 883.837 605.455 885.191" stroke="white" stroke-opacity="0.18"/>
<path opacity="0.04" d="M1734.93 110.663C1732.07 124.655 1726.34 159.68 1726.34 187.845C1726.34 223.051 1712.83 235.238 1734.93 266.381C1757.03 297.525 1732.48 324.606 1747.21 354.396C1759 378.228 1783.22 412.17 1793.86 426.162" stroke="white"/>
<path d="M1790.18 504.698C1775.45 493.866 1742.79 456.222 1730.02 392.31C1714.06 312.42 1684.6 236.592 1673.55 179.721C1662.5 122.85 1610.94 70.0408 1608.48 140.453C1606.03 210.864 1652.68 279.922 1630.58 308.358C1608.48 336.793 1635.49 350.334 1565.51 354.396C1495.53 358.458 1486.94 384.186 1456.25 392.31C1425.55 400.435 1407.14 412.621 1344.53 419.392C1281.91 426.162 1231.58 455.952 1192.29 504.698C1153.01 553.445 1164.06 576.464 1106.35 598.129C1048.65 619.794 1002 636.043 939.388 636.043C876.775 636.043 774.877 617.086 730.68 636.043C695.322 651.209 630.828 689.303 603 706.455" stroke="white" stroke-opacity="0.14"/>
<path d="M605.455 682.082L654.296 661.881C654.472 661.808 654.627 661.709 654.763 661.576C675.724 641.184 721.154 598.095 736.818 587.296C756.461 573.756 819.074 580.526 858.36 587.296C897.646 594.067 947.981 572.402 1019.19 549.382C1090.39 526.363 1096.53 546.674 1124.77 538.55C1153.01 530.425 1198.43 451.889 1238.94 420.746C1279.46 389.602 1308.92 382.831 1373.99 357.104C1439.06 331.377 1424.33 346.271 1483.26 340.855C1542.18 335.439 1552.01 313.774 1560.6 285.338C1569.19 256.903 1549.39 209.847 1560.6 148.577C1566 119.06 1570 108.56 1580.24 99.8302C1584.28 96.3925 1594.2 87.2603 1615 90.0603C1641 93.5603 1665.5 106.06 1680.5 106.06C1695.5 106.06 1712.5 97.5603 1724.5 139.06C1734.1 172.26 1746.17 183.56 1751 185.06" stroke="white" stroke-opacity="0.14"/>
<path d="M1793.86 569.694C1781.59 562.021 1754.58 540.987 1744.75 518.239C1732.48 489.803 1714.06 441.057 1706.7 405.851C1699.33 370.645 1688.28 342.21 1668.64 342.21C1648.99 342.21 1609.71 355.75 1609.71 376.061C1609.71 396.372 1623.21 416.684 1579.02 416.684C1534.82 416.684 1543.41 393.664 1479.57 416.684C1415.73 439.703 1461.16 403.143 1376.45 465.43C1291.74 527.717 1258.59 562.923 1209.48 591.359C1160.37 619.794 1191.07 622.503 1128.45 629.273C1065.84 636.043 1100.22 623.857 1047.43 642.814C994.634 661.771 1049.88 661.771 963.942 661.771C878.003 661.771 857.133 661.771 800.659 661.771C744.185 661.771 749.096 660.417 719.631 675.311C690.167 690.206 648.425 718.642 641.059 728.12C635.166 735.703 616.505 752.042 607.911 759.264" stroke="white" stroke-opacity="0.2"/>
<path d="M1790.18 664.479C1775.85 664.027 1745.49 659.875 1738.61 646.876C1730.02 630.627 1695.65 571.048 1691.96 542.612C1689.04 520.02 1655.19 488.436 1638.29 475.181C1638.06 474.998 1637.79 474.896 1637.5 474.881C1630.92 474.559 1612.28 476.809 1586.38 488.449C1553.23 503.344 1490.62 523.655 1477.12 523.655C1463.61 523.655 1403.45 515.531 1364.17 542.612C1324.88 569.694 1307.69 629.273 1249.99 633.335C1192.29 637.397 1126 664.479 1079.34 664.479C1032.69 664.479 1084.25 675.311 1009.37 676.665C934.476 678.019 943.07 676.665 878.002 676.665C812.934 676.665 793.291 683.436 750.322 692.914C707.353 702.393 731.907 683.436 686.482 721.35C650.142 751.681 620.596 778.221 610.365 787.699" stroke="white" stroke-opacity="0.2"/>
<path d="M610.365 664.479C616.913 662.222 633.937 656.354 649.651 650.938C669.294 644.168 691.393 600.837 724.541 579.172C757.688 557.507 788.381 560.215 871.864 560.215C955.347 560.215 938.159 560.215 963.941 560.215C989.722 560.215 1021.64 535.842 1070.75 535.842C1119.86 535.842 1134.59 501.99 1153.01 480.325C1171.42 458.66 1226.67 400.435 1248.77 396.372C1270.86 392.31 1318.74 343.564 1327.34 343.564C1335.93 343.564 1380.13 327.315 1397.32 290.755C1414.5 254.195 1420.64 237.946 1441.51 223.051C1462.38 208.156 1485.71 223.051 1506.58 189.199C1523.28 162.118 1513.54 118.336 1506.58 99.8304C1504.77 96.2404 1502.25 86.7603 1506.58 77.5603C1512 66.0603 1501.5 50.0603 1529 43.0603C1556.5 36.0603 1609.5 31.0603 1612.5 30.5603C1615.5 30.0603 1627 18.0603 1662.5 52.0603C1698 86.0603 1698.5 80.5603 1715.5 80.5603C1729.1 80.5603 1755.83 91.227 1767.5 96.5603" stroke="white" stroke-opacity="0.1"/>
<path d="M607.911 602.191C614.868 601.74 633.693 597.046 653.336 581.88C677.89 562.923 686.483 527.717 718.403 508.76C750.323 489.803 772.422 488.449 842.4 460.014C912.379 431.578 881.687 446.473 928.339 430.224C974.991 413.975 970.08 399.08 1014.28 363.875C1058.47 328.669 1070.75 304.295 1096.53 285.338C1122.31 266.381 1180.02 274.506 1257.36 274.506C1334.71 274.506 1339.62 251.487 1356.8 225.759C1373.99 200.032 1359.26 187.845 1402.23 159.41C1444.98 131.115 1451.27 102.82 1451.34 93.2021C1451.34 93.1027 1451.33 93.0154 1451.31 92.9179C1449.39 83.1762 1448.97 61.0017 1462.5 49.0601C1479.5 34.0601 1494 34.5601 1512 27.0601C1530 19.5601 1545 -5.43992 1574.5 2.56007C1604 10.5601 1632.5 4.06008 1652.5 9.56007C1672.5 15.0601 1688.5 30.0601 1707.5 27.0601C1722.7 24.6601 1736.5 14.3934 1741.5 9.56007" stroke="white" stroke-opacity="0.1"/>
<path opacity="0.04" d="M1337.16 99.8308C1335.11 112.469 1323.41 143.974 1292.96 168.888C1254.9 200.032 1274.55 194.616 1224.21 194.616C1173.88 194.616 1145.64 195.97 1111.26 224.405C1076.89 252.841 1085.48 263.673 1040.06 267.736C994.634 271.798 1009.37 251.487 974.99 298.879C940.615 346.272 960.258 367.937 916.061 390.956C871.864 413.975 860.815 455.952 804.341 462.722C747.867 469.492 733.135 483.033 699.987 507.406C666.84 531.78 671.75 534.488 645.969 557.507C625.344 575.923 610.366 580.526 605.455 580.526" stroke="white"/>
</svg>
