<svg width="105" height="99" viewBox="0 0 105 99" fill="none" xmlns="http://www.w3.org/2000/svg">
<mask id="path-1-inside-1_203_22495" fill="white">
<path fill-rule="evenodd" clip-rule="evenodd" d="M46.4833 25.976C53.4543 25.976 59.1054 20.3249 59.1054 13.354C59.1054 6.383 53.4543 0.731934 46.4833 0.731934C45.8481 0.731934 45.7385 1.68174 46.2709 2.02839C48.4711 3.46117 49.9257 5.94277 49.9257 8.76413C49.9257 13.2002 46.3296 16.7963 41.8935 16.7963C39.0722 16.7963 36.5906 15.3417 35.1578 13.1415C34.8111 12.6091 33.8613 12.7187 33.8613 13.354C33.8613 20.3249 39.5124 25.976 46.4833 25.976Z"/>
</mask>
<path d="M35.1578 13.1415L33.2347 14.3938L35.1578 13.1415ZM56.8105 13.354C56.8105 19.0575 52.1869 23.6811 46.4833 23.6811V28.2709C54.7217 28.2709 61.4003 21.5923 61.4003 13.354H56.8105ZM46.4833 3.02685C52.1869 3.02685 56.8105 7.65045 56.8105 13.354H61.4003C61.4003 5.11556 54.7217 -1.56298 46.4833 -1.56298V3.02685ZM45.0185 3.95149C46.596 4.97873 47.6308 6.75121 47.6308 8.76413H52.2206C52.2206 5.13433 50.3462 1.94361 47.5232 0.105292L45.0185 3.95149ZM47.6308 8.76413C47.6308 11.9327 45.0621 14.5014 41.8935 14.5014V19.0912C47.597 19.0912 52.2206 14.4676 52.2206 8.76413H47.6308ZM41.8935 14.5014C39.8806 14.5014 38.1081 13.4666 37.0809 11.8891L33.2347 14.3938C35.073 17.2168 38.2637 19.0912 41.8935 19.0912V14.5014ZM46.4833 23.6811C40.7798 23.6811 36.1562 19.0575 36.1562 13.354H31.5664C31.5664 21.5923 38.245 28.2709 46.4833 28.2709V23.6811ZM37.0809 11.8891C36.3288 10.7343 35.0401 10.3968 34.0539 10.5382C33.0145 10.6872 31.5664 11.5558 31.5664 13.354H36.1562C36.1562 13.8185 35.9621 14.2878 35.6099 14.6281C35.2942 14.9333 34.9479 15.0468 34.7053 15.0815C34.2806 15.1424 33.6401 15.0163 33.2347 14.3938L37.0809 11.8891ZM46.4833 -1.56298C44.6852 -1.56298 43.8166 -0.114935 43.6676 0.924464C43.5262 1.91071 43.8637 3.19944 45.0185 3.95149L47.5232 0.105292C48.1457 0.510689 48.2718 1.15119 48.2109 1.57587C48.1762 1.8185 48.0627 2.16479 47.7575 2.48055C47.4172 2.83272 46.9479 3.02685 46.4833 3.02685V-1.56298Z" fill="white" mask="url(#path-1-inside-1_203_22495)"/>
<path d="M21.2393 67.2847V97.1185" stroke="white" stroke-width="2.29491"/>
<path d="M46.4834 73.022L56.8105 91.3813" stroke="white" stroke-width="2.29491" stroke-linecap="round"/>
<path d="M21.2393 67.2847L37.3036 97.1185" stroke="white" stroke-width="2.29491"/>
<path d="M67.7528 68.6179L79.4039 93.8619C80.1057 95.3826 78.995 97.1185 77.3202 97.1185H9.01699C7.28048 97.1185 6.17311 95.2645 6.99638 93.7356L20.5893 68.4916C20.9896 67.7482 21.7657 67.2847 22.6099 67.2847H65.6691C66.5642 67.2847 67.3777 67.8051 67.7528 68.6179Z" stroke="white" stroke-width="2.29491"/>
<path d="M1.73242 76.4639L11.3776 61.4603C11.6722 61.0021 11.3432 60.3995 10.7985 60.3995H6.39077C5.85562 60.3995 5.52507 59.8157 5.80041 59.3568L14.8763 44.2304C15.1516 43.7715 14.8211 43.1877 14.2859 43.1877H9.90359C9.3537 43.1877 9.02572 42.5748 9.33074 42.1173L19.5189 26.8351C19.7914 26.4263 20.3921 26.4263 20.6646 26.8351L30.8527 42.1173C31.1577 42.5748 30.8297 43.1877 30.2799 43.1877H24.7501C24.2149 43.1877 23.8844 43.7715 24.1597 44.2304L33.2356 59.3568C33.5109 59.8157 33.1804 60.3995 32.6452 60.3995H26.9765" stroke="white" stroke-width="2.29491"/>
<path d="M72.875 60.3998L74.4563 58.0278C74.7613 57.5702 74.4333 56.9574 73.8835 56.9574H69.5462C69.0015 56.9574 68.6725 56.3548 68.9671 55.8966L77.9303 41.9538C78.2249 41.4956 77.8959 40.893 77.3512 40.893H71.8665C71.3166 40.893 70.9886 40.2802 71.2936 39.8226L81.5087 24.5001C81.7739 24.1023 82.3539 24.0893 82.6367 24.4749L93.8732 39.7974C94.2067 40.2521 93.8819 40.893 93.318 40.893H87.9055C87.3608 40.893 87.0318 41.4956 87.3264 41.9538L96.2896 55.8966C96.5842 56.3548 96.2552 56.9574 95.7105 56.9574H91.3733C90.8234 56.9574 90.4954 57.5702 90.8004 58.0278L100.848 73.0989C101.153 73.5564 100.825 74.1692 100.275 74.1692H92.4998C91.9542 74.1692 91.6254 74.7736 91.9218 75.2317L103.169 92.6135C103.465 93.0716 103.136 93.676 102.591 93.676H84.3495" stroke="white" stroke-width="2.29491"/>
</svg>
