<svg width="18" height="16" viewBox="0 0 18 16" fill="none" xmlns="http://www.w3.org/2000/svg">
<path fill-rule="evenodd" clip-rule="evenodd" d="M13.4737 7.99999C13.4737 11.023 11.023 13.4737 7.99999 13.4737C4.97696 13.4737 2.52631 11.023 2.52631 7.99999C2.52631 4.97696 4.97696 2.52631 7.99999 2.52631C9.17232 2.52631 10.2586 2.89486 11.1492 3.52242L12.9538 1.71786C11.5914 0.642071 9.87067 0 7.99999 0C3.58172 0 0 3.58172 0 7.99999C0 12.4183 3.58172 16 7.99999 16C12.4183 16 16 12.4183 16 7.99999C16 6.91468 15.7839 5.87984 15.3923 4.93617L13.3739 6.95454C13.4394 7.29295 13.4737 7.64247 13.4737 7.99999Z" fill="#808080"/>
<path d="M5.5 7L8 9.5L16.5 1" stroke="#808080" stroke-width="2" stroke-linejoin="round"/>
</svg>
