<svg width="1304" height="497" viewBox="0 0 1304 497" fill="none" xmlns="http://www.w3.org/2000/svg">
<path d="M50 497C22.3858 497 9.43466e-07 474.614 -8.3676e-07 447L-2.64304e-05 50.0001C-2.82107e-05 22.3858 22.3857 6.03183e-05 50 5.9434e-05L1254 2.0878e-05C1281.61 1.99938e-05 1304 22.3858 1304 50L1304 447C1304 474.614 1281.61 497 1254 497L50 497Z" fill="url(#paint0_radial_466_4653)"/>
<rect opacity="0.05" x="218" y="51" width="868" height="420" rx="60" fill="url(#paint1_linear_466_4653)"/>
<path d="M218 374C233.439 352 255.31 308 314.492 308C354.375 308 359.521 322.5 396.832 322.5C440.62 322.5 466.306 305 488.177 285.5C510.049 266 551.686 231.572 578.236 209C620.039 173.462 665.701 179.5 688.989 212C712.277 244.5 741.917 287 762.502 316.5C778.353 339.217 819.807 361 869.983 361C899.573 361 971.923 338.5 1002.8 272.5C1033.68 206.5 1030.88 135.968 1049.12 115.5C1068.72 93.5 1082.14 93.3333 1089 92" stroke="url(#paint2_linear_466_4653)" stroke-opacity="0.5" stroke-width="2"/>
<path d="M314.16 309C257.746 309 233.386 353 218 375V424H1086V375V93C1078.39 93 1059.66 100.36 1047.47 118.5C1030.67 143.5 1033.43 207.5 1002.66 273.5C971.891 339.5 897.9 361.5 864.437 361.5C814.434 361.5 775.283 335.217 759.486 312.5C738.972 283 707.821 239.5 688.541 212.5C669.26 185.5 627.157 167 578.278 210C552.171 232.967 511.607 266 489.811 285.5C468.015 305 442.372 323.5 396.216 323.5C359.034 323.5 352.623 309 314.16 309Z" fill="url(#paint3_radial_466_4653)"/>
<g opacity="0.4">
<circle opacity="0.2" cx="218" cy="373" r="3.25" stroke="white" stroke-width="1.5"/>
<circle cx="295" cy="310" r="3.25" stroke="white" stroke-width="1.5"/>
<circle cx="374" cy="321" r="3.25" stroke="white" stroke-width="1.5"/>
<circle cx="454" cy="308" r="3.25" stroke="white" stroke-width="1.5"/>
<circle cx="533" cy="247" r="3.25" stroke="white" stroke-width="1.5"/>
<circle cx="612" cy="189" r="3.25" stroke="white" stroke-width="1.5"/>
<circle cx="692" cy="216" r="3.25" stroke="white" stroke-width="1.5"/>
<circle cx="771" cy="326" r="3.25" stroke="white" stroke-width="1.5"/>
<circle opacity="0.8" cx="848" cy="359" r="3.25" stroke="white" stroke-width="1.5"/>
<circle cx="927" cy="346" r="3.25" stroke="white" stroke-width="1.5"/>
<circle cx="1007" cy="263" r="3.25" stroke="white" stroke-width="1.5"/>
<circle opacity="0.19" cx="1086" cy="91" r="3.25" stroke="white" stroke-width="1.5"/>
</g>
<path d="M660 321.5C714.952 321.5 759.5 276.952 759.5 222C759.5 167.048 714.952 122.5 660 122.5C605.048 122.5 560.5 167.048 560.5 222C560.5 276.952 605.048 321.5 660 321.5ZM770.5 222C770.5 283.027 721.027 332.5 660 332.5C598.973 332.5 549.5 283.027 549.5 222C549.5 160.973 598.973 111.5 660 111.5C721.027 111.5 770.5 160.973 770.5 222Z" fill="white" fill-opacity="0.25" stroke="#219653"/>
<mask id="mask0_466_4653" style="mask-type:alpha" maskUnits="userSpaceOnUse" x="549" y="111" width="222" height="222">
<path d="M660 321.5C714.952 321.5 759.5 276.952 759.5 222C759.5 167.048 714.952 122.5 660 122.5C605.048 122.5 560.5 167.048 560.5 222C560.5 276.952 605.048 321.5 660 321.5ZM770.5 222C770.5 283.027 721.027 332.5 660 332.5C598.973 332.5 549.5 283.027 549.5 222C549.5 160.973 598.973 111.5 660 111.5C721.027 111.5 770.5 160.973 770.5 222Z" fill="white" stroke="white"/>
</mask>
<g mask="url(#mask0_466_4653)">
<path d="M660 222.5V104.5L793 135L781.5 343.5L580.5 339.5L525 261.5L660 222.5Z" fill="#219653"/>
</g>
<path opacity="0.1" fill-rule="evenodd" clip-rule="evenodd" d="M660 307C706.944 307 745 268.944 745 222C745 175.056 706.944 137 660 137C613.056 137 575 175.056 575 222C575 268.944 613.056 307 660 307ZM660 319C713.572 319 757 275.572 757 222C757 168.428 713.572 125 660 125C606.428 125 563 168.428 563 222C563 275.572 606.428 319 660 319Z" fill="white"/>
<mask id="mask1_466_4653" style="mask-type:alpha" maskUnits="userSpaceOnUse" x="563" y="125" width="194" height="194">
<path fill-rule="evenodd" clip-rule="evenodd" d="M660 307C706.944 307 745 268.944 745 222C745 175.056 706.944 137 660 137C613.056 137 575 175.056 575 222C575 268.944 613.056 307 660 307ZM660 319C713.572 319 757 275.572 757 222C757 168.428 713.572 125 660 125C606.428 125 563 168.428 563 222C563 275.572 606.428 319 660 319Z" fill="white"/>
</mask>
<g mask="url(#mask1_466_4653)">
<path d="M660 195.5V109L785 109.5V339.5H618.5L660 227.5V195.5Z" fill="#219653"/>
</g>
<path opacity="0.05" fill-rule="evenodd" clip-rule="evenodd" d="M660 293C699.212 293 731 261.212 731 222C731 182.788 699.212 151 660 151C620.788 151 589 182.788 589 222C589 261.212 620.788 293 660 293ZM660 305C705.84 305 743 267.84 743 222C743 176.16 705.84 139 660 139C614.16 139 577 176.16 577 222C577 267.84 614.16 305 660 305Z" fill="white"/>
<mask id="mask2_466_4653" style="mask-type:alpha" maskUnits="userSpaceOnUse" x="577" y="139" width="166" height="166">
<path fill-rule="evenodd" clip-rule="evenodd" d="M660 293C699.212 293 731 261.212 731 222C731 182.788 699.212 151 660 151C620.788 151 589 182.788 589 222C589 261.212 620.788 293 660 293ZM660 305C705.84 305 743 267.84 743 222C743 176.16 705.84 139 660 139C614.16 139 577 176.16 577 222C577 267.84 614.16 305 660 305Z" fill="white"/>
</mask>
<g mask="url(#mask2_466_4653)">
<path d="M660 222.5V135.5L722.5 142L763.5 222.5L722.5 285L660 222.5Z" fill="#219653"/>
</g>
<path d="M620.169 233.36C618.709 233.36 617.259 233.17 615.819 232.79C614.379 232.39 613.159 231.83 612.159 231.11L614.049 227.39C614.849 227.97 615.779 228.43 616.839 228.77C617.899 229.11 618.969 229.28 620.049 229.28C621.269 229.28 622.229 229.04 622.929 228.56C623.629 228.08 623.979 227.42 623.979 226.58C623.979 225.78 623.669 225.15 623.049 224.69C622.429 224.23 621.429 224 620.049 224H617.829V220.79L623.679 214.16L624.219 215.9H613.209V212H627.909V215.15L622.089 221.78L619.629 220.37H621.039C623.619 220.37 625.569 220.95 626.889 222.11C628.209 223.27 628.869 224.76 628.869 226.58C628.869 227.76 628.559 228.87 627.939 229.91C627.319 230.93 626.369 231.76 625.089 232.4C623.809 233.04 622.169 233.36 620.169 233.36ZM630.873 228.59V225.32L640.773 212H645.873L636.183 225.32L633.813 224.63H650.343V228.59H630.873ZM642.183 233V228.59L642.333 224.63V220.7H646.923V233H642.183ZM651.617 233V229.85L659.717 222.2C660.357 221.62 660.827 221.1 661.127 220.64C661.427 220.18 661.627 219.76 661.727 219.38C661.847 219 661.907 218.65 661.907 218.33C661.907 217.49 661.617 216.85 661.037 216.41C660.477 215.95 659.647 215.72 658.547 215.72C657.667 215.72 656.847 215.89 656.087 216.23C655.347 216.57 654.717 217.1 654.197 217.82L650.657 215.54C651.457 214.34 652.577 213.39 654.017 212.69C655.457 211.99 657.117 211.64 658.997 211.64C660.557 211.64 661.917 211.9 663.077 212.42C664.257 212.92 665.167 213.63 665.807 214.55C666.467 215.47 666.797 216.57 666.797 217.85C666.797 218.53 666.707 219.21 666.527 219.89C666.367 220.55 666.027 221.25 665.507 221.99C665.007 222.73 664.267 223.56 663.287 224.48L656.567 230.81L655.637 229.04H667.487V233H651.617ZM691.152 216.62C692.432 216.62 693.562 216.88 694.542 217.4C695.542 217.9 696.322 218.68 696.882 219.74C697.462 220.78 697.752 222.12 697.752 223.76V233H693.072V224.48C693.072 223.18 692.802 222.22 692.262 221.6C691.722 220.98 690.962 220.67 689.982 220.67C689.302 220.67 688.692 220.83 688.152 221.15C687.612 221.45 687.192 221.91 686.892 222.53C686.592 223.15 686.442 223.94 686.442 224.9V233H681.762V224.48C681.762 223.18 681.492 222.22 680.952 221.6C680.432 220.98 679.682 220.67 678.702 220.67C678.022 220.67 677.412 220.83 676.872 221.15C676.332 221.45 675.912 221.91 675.612 222.53C675.312 223.15 675.162 223.94 675.162 224.9V233H670.482V216.86H674.952V221.27L674.112 219.98C674.672 218.88 675.462 218.05 676.482 217.49C677.522 216.91 678.702 216.62 680.022 216.62C681.502 216.62 682.792 217 683.892 217.76C685.012 218.5 685.752 219.64 686.112 221.18L684.462 220.73C685.002 219.47 685.862 218.47 687.042 217.73C688.242 216.99 689.612 216.62 691.152 216.62ZM701.947 233V216.86H706.627V233H701.947ZM704.287 214.61C703.427 214.61 702.727 214.36 702.187 213.86C701.647 213.36 701.377 212.74 701.377 212C701.377 211.26 701.647 210.64 702.187 210.14C702.727 209.64 703.427 209.39 704.287 209.39C705.147 209.39 705.847 209.63 706.387 210.11C706.927 210.57 707.197 211.17 707.197 211.91C707.197 212.69 706.927 213.34 706.387 213.86C705.867 214.36 705.167 214.61 704.287 214.61Z" fill="white"/>
<path d="M634.116 248V241H637.296C638.056 241 638.726 241.147 639.306 241.44C639.886 241.727 640.339 242.13 640.666 242.65C640.993 243.17 641.156 243.787 641.156 244.5C641.156 245.207 640.993 245.823 640.666 246.35C640.339 246.87 639.886 247.277 639.306 247.57C638.726 247.857 638.056 248 637.296 248H634.116ZM635.736 246.67H637.216C637.683 246.67 638.086 246.583 638.426 246.41C638.773 246.23 639.039 245.977 639.226 245.65C639.419 245.323 639.516 244.94 639.516 244.5C639.516 244.053 639.419 243.67 639.226 243.35C639.039 243.023 638.773 242.773 638.426 242.6C638.086 242.42 637.683 242.33 637.216 242.33H635.736V246.67ZM642.378 248V241H643.998V248H642.378ZM647.959 248.12C647.399 248.12 646.862 248.047 646.349 247.9C645.836 247.747 645.422 247.55 645.109 247.31L645.659 246.09C645.959 246.303 646.312 246.48 646.719 246.62C647.132 246.753 647.549 246.82 647.969 246.82C648.289 246.82 648.546 246.79 648.739 246.73C648.939 246.663 649.086 246.573 649.179 246.46C649.272 246.347 649.319 246.217 649.319 246.07C649.319 245.883 649.246 245.737 649.099 245.63C648.952 245.517 648.759 245.427 648.519 245.36C648.279 245.287 648.012 245.22 647.719 245.16C647.432 245.093 647.142 245.013 646.849 244.92C646.562 244.827 646.299 244.707 646.059 244.56C645.819 244.413 645.622 244.22 645.469 243.98C645.322 243.74 645.249 243.433 645.249 243.06C645.249 242.66 645.356 242.297 645.569 241.97C645.789 241.637 646.116 241.373 646.549 241.18C646.989 240.98 647.539 240.88 648.199 240.88C648.639 240.88 649.072 240.933 649.499 241.04C649.926 241.14 650.302 241.293 650.629 241.5L650.129 242.73C649.802 242.543 649.476 242.407 649.149 242.32C648.822 242.227 648.502 242.18 648.189 242.18C647.876 242.18 647.619 242.217 647.419 242.29C647.219 242.363 647.076 242.46 646.989 242.58C646.902 242.693 646.859 242.827 646.859 242.98C646.859 243.16 646.932 243.307 647.079 243.42C647.226 243.527 647.419 243.613 647.659 243.68C647.899 243.747 648.162 243.813 648.449 243.88C648.742 243.947 649.032 244.023 649.319 244.11C649.612 244.197 649.879 244.313 650.119 244.46C650.359 244.607 650.552 244.8 650.699 245.04C650.852 245.28 650.929 245.583 650.929 245.95C650.929 246.343 650.819 246.703 650.599 247.03C650.379 247.357 650.049 247.62 649.609 247.82C649.176 248.02 648.626 248.12 647.959 248.12ZM653.388 248V242.32H651.148V241H657.248V242.32H655.008V248H653.388ZM656.848 248L659.968 241H661.568L664.698 248H662.998L660.438 241.82H661.078L658.508 248H656.848ZM658.408 246.5L658.838 245.27H662.438L662.878 246.5H658.408ZM665.425 248V241H666.765L670.895 246.04H670.245V241H671.845V248H670.515L666.375 242.96H667.025V248H665.425ZM676.851 248.12C676.311 248.12 675.808 248.033 675.341 247.86C674.881 247.68 674.481 247.427 674.141 247.1C673.801 246.773 673.534 246.39 673.341 245.95C673.154 245.51 673.061 245.027 673.061 244.5C673.061 243.973 673.154 243.49 673.341 243.05C673.534 242.61 673.801 242.227 674.141 241.9C674.488 241.573 674.891 241.323 675.351 241.15C675.811 240.97 676.314 240.88 676.861 240.88C677.468 240.88 678.014 240.987 678.501 241.2C678.994 241.407 679.408 241.713 679.741 242.12L678.701 243.08C678.461 242.807 678.194 242.603 677.901 242.47C677.608 242.33 677.288 242.26 676.941 242.26C676.614 242.26 676.314 242.313 676.041 242.42C675.768 242.527 675.531 242.68 675.331 242.88C675.131 243.08 674.974 243.317 674.861 243.59C674.754 243.863 674.701 244.167 674.701 244.5C674.701 244.833 674.754 245.137 674.861 245.41C674.974 245.683 675.131 245.92 675.331 246.12C675.531 246.32 675.768 246.473 676.041 246.58C676.314 246.687 676.614 246.74 676.941 246.74C677.288 246.74 677.608 246.673 677.901 246.54C678.194 246.4 678.461 246.19 678.701 245.91L679.741 246.87C679.408 247.277 678.994 247.587 678.501 247.8C678.014 248.013 677.464 248.12 676.851 248.12ZM682.325 243.82H685.695V245.08H682.325V243.82ZM682.445 246.7H686.255V248H680.835V241H686.125V242.3H682.445V246.7Z" fill="white"/>
<path d="M624.977 397V390H626.317L629.297 394.94H628.587L631.517 390H632.847L632.867 397H631.347L631.337 392.33H631.617L629.277 396.26H628.547L626.157 392.33H626.497V397H624.977ZM637.928 397.12C637.375 397.12 636.862 397.03 636.388 396.85C635.922 396.67 635.515 396.417 635.168 396.09C634.828 395.763 634.562 395.38 634.368 394.94C634.182 394.5 634.088 394.02 634.088 393.5C634.088 392.98 634.182 392.5 634.368 392.06C634.562 391.62 634.832 391.237 635.178 390.91C635.525 390.583 635.932 390.33 636.398 390.15C636.865 389.97 637.372 389.88 637.918 389.88C638.472 389.88 638.978 389.97 639.438 390.15C639.905 390.33 640.308 390.583 640.648 390.91C640.995 391.237 641.265 391.62 641.458 392.06C641.652 392.493 641.748 392.973 641.748 393.5C641.748 394.02 641.652 394.503 641.458 394.95C641.265 395.39 640.995 395.773 640.648 396.1C640.308 396.42 639.905 396.67 639.438 396.85C638.978 397.03 638.475 397.12 637.928 397.12ZM637.918 395.74C638.232 395.74 638.518 395.687 638.778 395.58C639.045 395.473 639.278 395.32 639.478 395.12C639.678 394.92 639.832 394.683 639.938 394.41C640.052 394.137 640.108 393.833 640.108 393.5C640.108 393.167 640.052 392.863 639.938 392.59C639.832 392.317 639.678 392.08 639.478 391.88C639.285 391.68 639.055 391.527 638.788 391.42C638.522 391.313 638.232 391.26 637.918 391.26C637.605 391.26 637.315 391.313 637.048 391.42C636.788 391.527 636.558 391.68 636.358 391.88C636.158 392.08 636.002 392.317 635.888 392.59C635.782 392.863 635.728 393.167 635.728 393.5C635.728 393.827 635.782 394.13 635.888 394.41C636.002 394.683 636.155 394.92 636.348 395.12C636.548 395.32 636.782 395.473 637.048 395.58C637.315 395.687 637.605 395.74 637.918 395.74ZM644.841 397L641.821 390H643.571L646.211 396.2H645.181L647.861 390H649.471L646.441 397H644.841ZM650.056 397V390H651.676V397H650.056ZM653.337 397V390H654.677L658.807 395.04H658.157V390H659.757V397H658.427L654.287 391.96H654.937V397H653.337ZM664.793 397.12C664.24 397.12 663.73 397.033 663.263 396.86C662.803 396.68 662.4 396.427 662.053 396.1C661.713 395.773 661.446 395.39 661.253 394.95C661.066 394.51 660.973 394.027 660.973 393.5C660.973 392.973 661.066 392.49 661.253 392.05C661.446 391.61 661.716 391.227 662.063 390.9C662.41 390.573 662.816 390.323 663.283 390.15C663.75 389.97 664.263 389.88 664.823 389.88C665.443 389.88 666 389.983 666.493 390.19C666.993 390.397 667.413 390.697 667.753 391.09L666.713 392.05C666.46 391.783 666.183 391.587 665.883 391.46C665.583 391.327 665.256 391.26 664.903 391.26C664.563 391.26 664.253 391.313 663.973 391.42C663.693 391.527 663.45 391.68 663.243 391.88C663.043 392.08 662.886 392.317 662.773 392.59C662.666 392.863 662.613 393.167 662.613 393.5C662.613 393.827 662.666 394.127 662.773 394.4C662.886 394.673 663.043 394.913 663.243 395.12C663.45 395.32 663.69 395.473 663.963 395.58C664.243 395.687 664.55 395.74 664.883 395.74C665.203 395.74 665.513 395.69 665.813 395.59C666.12 395.483 666.416 395.307 666.703 395.06L667.623 396.23C667.243 396.517 666.8 396.737 666.293 396.89C665.793 397.043 665.293 397.12 664.793 397.12ZM666.143 396.02V393.39H667.623V396.23L666.143 396.02ZM673.41 397V391.32H671.17V390H677.27V391.32H675.03V397H673.41ZM678.142 397V390H679.762V397H678.142ZM681.423 397V390H682.763L685.743 394.94H685.033L687.963 390H689.293L689.313 397H687.793L687.783 392.33H688.063L685.723 396.26H684.993L682.603 392.33H682.943V397H681.423ZM692.464 392.82H695.834V394.08H692.464V392.82ZM692.584 395.7H696.394V397H690.974V390H696.264V391.3H692.584V395.7Z" fill="white"/>
<path d="M582.41 380V360.8L584.51 362.9H578.21V359H587.27V380H582.41ZM598.058 380.36C596.598 380.36 595.148 380.17 593.708 379.79C592.288 379.39 591.068 378.83 590.048 378.11L591.968 374.39C592.768 374.97 593.688 375.43 594.728 375.77C595.788 376.11 596.858 376.28 597.938 376.28C599.158 376.28 600.118 376.04 600.818 375.56C601.518 375.08 601.868 374.41 601.868 373.55C601.868 373.01 601.728 372.53 601.448 372.11C601.168 371.69 600.668 371.37 599.948 371.15C599.248 370.93 598.258 370.82 596.978 370.82H591.608L592.688 359H605.498V362.9H594.428L596.948 360.68L596.198 369.11L593.678 366.89H598.118C600.198 366.89 601.868 367.18 603.128 367.76C604.408 368.32 605.338 369.09 605.918 370.07C606.498 371.05 606.788 372.16 606.788 373.4C606.788 374.64 606.478 375.79 605.858 376.85C605.238 377.89 604.278 378.74 602.978 379.4C601.698 380.04 600.058 380.36 598.058 380.36ZM619.56 363.62C620.84 363.62 621.98 363.88 622.98 364.4C624 364.9 624.8 365.68 625.38 366.74C625.96 367.78 626.25 369.12 626.25 370.76V380H621.57V371.48C621.57 370.18 621.28 369.22 620.7 368.6C620.14 367.98 619.34 367.67 618.3 367.67C617.56 367.67 616.89 367.83 616.29 368.15C615.71 368.45 615.25 368.92 614.91 369.56C614.59 370.2 614.43 371.02 614.43 372.02V380H609.75V357.74H614.43V368.33L613.38 366.98C613.96 365.9 614.79 365.07 615.87 364.49C616.95 363.91 618.18 363.62 619.56 363.62ZM629.682 384.62L631.662 377.42L632.322 380.12C631.462 380.12 630.752 379.87 630.192 379.37C629.652 378.87 629.382 378.18 629.382 377.3C629.382 376.42 629.662 375.72 630.222 375.2C630.782 374.68 631.472 374.42 632.292 374.42C633.132 374.42 633.822 374.69 634.362 375.23C634.902 375.75 635.172 376.44 635.172 377.3C635.172 377.56 635.152 377.82 635.112 378.08C635.072 378.32 634.992 378.62 634.872 378.98C634.772 379.32 634.602 379.76 634.362 380.3L632.652 384.62H629.682ZM652.66 380.36C651.2 380.36 649.75 380.17 648.31 379.79C646.87 379.39 645.65 378.83 644.65 378.11L646.54 374.39C647.34 374.97 648.27 375.43 649.33 375.77C650.39 376.11 651.46 376.28 652.54 376.28C653.76 376.28 654.72 376.04 655.42 375.56C656.12 375.08 656.47 374.42 656.47 373.58C656.47 372.78 656.16 372.15 655.54 371.69C654.92 371.23 653.92 371 652.54 371H650.32V367.79L656.17 361.16L656.71 362.9H645.7V359H660.4V362.15L654.58 368.78L652.12 367.37H653.53C656.11 367.37 658.06 367.95 659.38 369.11C660.7 370.27 661.36 371.76 661.36 373.58C661.36 374.76 661.05 375.87 660.43 376.91C659.81 377.93 658.86 378.76 657.58 379.4C656.3 380.04 654.66 380.36 652.66 380.36ZM663.277 380V376.85L671.377 369.2C672.017 368.62 672.487 368.1 672.787 367.64C673.087 367.18 673.287 366.76 673.387 366.38C673.507 366 673.567 365.65 673.567 365.33C673.567 364.49 673.277 363.85 672.697 363.41C672.137 362.95 671.307 362.72 670.207 362.72C669.327 362.72 668.507 362.89 667.747 363.23C667.007 363.57 666.377 364.1 665.857 364.82L662.317 362.54C663.117 361.34 664.237 360.39 665.677 359.69C667.117 358.99 668.777 358.64 670.657 358.64C672.217 358.64 673.577 358.9 674.737 359.42C675.917 359.92 676.827 360.63 677.467 361.55C678.127 362.47 678.457 363.57 678.457 364.85C678.457 365.53 678.367 366.21 678.187 366.89C678.027 367.55 677.687 368.25 677.167 368.99C676.667 369.73 675.927 370.56 674.947 371.48L668.227 377.81L667.297 376.04H679.147V380H663.277ZM702.812 363.62C704.092 363.62 705.222 363.88 706.202 364.4C707.202 364.9 707.982 365.68 708.542 366.74C709.122 367.78 709.412 369.12 709.412 370.76V380H704.732V371.48C704.732 370.18 704.462 369.22 703.922 368.6C703.382 367.98 702.622 367.67 701.642 367.67C700.962 367.67 700.352 367.83 699.812 368.15C699.272 368.45 698.852 368.91 698.552 369.53C698.252 370.15 698.102 370.94 698.102 371.9V380H693.422V371.48C693.422 370.18 693.152 369.22 692.612 368.6C692.092 367.98 691.342 367.67 690.362 367.67C689.682 367.67 689.072 367.83 688.532 368.15C687.992 368.45 687.572 368.91 687.272 369.53C686.972 370.15 686.822 370.94 686.822 371.9V380H682.142V363.86H686.612V368.27L685.772 366.98C686.332 365.88 687.122 365.05 688.142 364.49C689.182 363.91 690.362 363.62 691.682 363.62C693.162 363.62 694.452 364 695.552 364.76C696.672 365.5 697.412 366.64 697.772 368.18L696.122 367.73C696.662 366.47 697.522 365.47 698.702 364.73C699.902 363.99 701.272 363.62 702.812 363.62ZM713.607 380V363.86H718.287V380H713.607ZM715.947 361.61C715.087 361.61 714.387 361.36 713.847 360.86C713.307 360.36 713.037 359.74 713.037 359C713.037 358.26 713.307 357.64 713.847 357.14C714.387 356.64 715.087 356.39 715.947 356.39C716.807 356.39 717.507 356.63 718.047 357.11C718.587 357.57 718.857 358.17 718.857 358.91C718.857 359.69 718.587 360.34 718.047 360.86C717.527 361.36 716.827 361.61 715.947 361.61ZM732.441 363.62C733.721 363.62 734.861 363.88 735.861 364.4C736.881 364.9 737.681 365.68 738.261 366.74C738.841 367.78 739.131 369.12 739.131 370.76V380H734.451V371.48C734.451 370.18 734.161 369.22 733.581 368.6C733.021 367.98 732.221 367.67 731.181 367.67C730.441 367.67 729.771 367.83 729.171 368.15C728.591 368.45 728.131 368.92 727.791 369.56C727.471 370.2 727.311 371.02 727.311 372.02V380H722.631V363.86H727.101V368.33L726.261 366.98C726.841 365.9 727.671 365.07 728.751 364.49C729.831 363.91 731.061 363.62 732.441 363.62Z" fill="white"/>
<g opacity="0.5">
<path d="M218 406V81" stroke="url(#paint4_linear_466_4653)" stroke-opacity="0.5" stroke-width="0.5"/>
<path d="M75 406V81" stroke="url(#paint5_linear_466_4653)" stroke-opacity="0.5" stroke-width="0.5"/>
<path d="M294.814 406V81" stroke="url(#paint6_linear_466_4653)" stroke-opacity="0.5" stroke-width="0.5"/>
<path d="M151.814 406V81" stroke="url(#paint7_linear_466_4653)" stroke-opacity="0.5" stroke-width="0.5"/>
<path d="M374.188 406V81" stroke="url(#paint8_linear_466_4653)" stroke-opacity="0.5" stroke-width="0.5"/>
<path d="M453.563 406V81" stroke="url(#paint9_linear_466_4653)" stroke-opacity="0.5" stroke-width="0.5"/>
<path d="M532.938 406V81" stroke="url(#paint10_linear_466_4653)" stroke-opacity="0.5" stroke-width="0.5"/>
<path d="M612.312 406V81" stroke="url(#paint11_linear_466_4653)" stroke-opacity="0.5" stroke-width="0.5"/>
<path d="M691.688 406V81" stroke="url(#paint12_linear_466_4653)" stroke-opacity="0.5" stroke-width="0.5"/>
<path d="M771.062 406V81" stroke="url(#paint13_linear_466_4653)" stroke-opacity="0.5" stroke-width="0.5"/>
<path d="M847.876 406V81" stroke="url(#paint14_linear_466_4653)" stroke-opacity="0.5" stroke-width="0.5"/>
<path d="M927.25 406V81" stroke="url(#paint15_linear_466_4653)" stroke-opacity="0.5" stroke-width="0.5"/>
<path d="M1164.25 396V71" stroke="url(#paint16_linear_466_4653)" stroke-opacity="0.5" stroke-width="0.5"/>
<path d="M1006.63 406V81" stroke="url(#paint17_linear_466_4653)" stroke-opacity="0.5" stroke-width="0.5"/>
<path d="M1243.62 396V71" stroke="url(#paint18_linear_466_4653)" stroke-opacity="0.5" stroke-width="0.5"/>
<path d="M1086 406V81" stroke="url(#paint19_linear_466_4653)" stroke-opacity="0.5" stroke-width="0.5"/>
</g>
<path d="M216.459 104.034C216.252 104.034 216.059 103.991 215.879 103.904C215.699 103.817 215.552 103.692 215.439 103.529L215.729 103.189C215.825 103.322 215.934 103.426 216.054 103.499C216.177 103.569 216.312 103.604 216.459 103.604C216.859 103.604 217.059 103.367 217.059 102.894L217.059 100.929L215.794 100.929L215.794 100.494L217.554 100.494L217.554 102.869C217.554 103.259 217.46 103.551 217.274 103.744C217.09 103.937 216.819 104.034 216.459 104.034ZM217.869 103.994L219.454 100.494L219.949 100.494L221.539 103.994L221.014 103.994L219.599 100.774L219.799 100.774L218.384 103.994L217.869 103.994ZM218.544 103.119L218.679 102.719L220.649 102.719L220.794 103.119L218.544 103.119ZM221.961 103.994L221.961 100.494L222.371 100.494L224.686 103.369L224.471 103.369L224.471 100.494L224.971 100.494L224.971 103.994L224.561 103.994L222.246 101.119L222.461 101.119L222.461 103.994L221.961 103.994Z" fill="white"/>
<path d="M292.911 102.15L294.716 102.15L294.716 102.58L292.911 102.58L292.911 102.15ZM292.961 103.995L292.461 103.995L292.461 100.495L294.931 100.495L294.931 100.93L292.961 100.93L292.961 103.995ZM295.99 102.005L297.79 102.005L297.79 102.43L295.99 102.43L295.99 102.005ZM296.035 103.56L298.075 103.56L298.075 103.995L295.535 103.995L295.535 100.495L298.005 100.495L298.005 100.93L296.035 100.93L296.035 103.56ZM298.785 103.995L298.785 100.495L300.355 100.495C300.758 100.495 301.068 100.577 301.285 100.74C301.501 100.9 301.61 101.12 301.61 101.4C301.61 101.59 301.566 101.75 301.48 101.88C301.396 102.01 301.283 102.11 301.14 102.18C300.996 102.25 300.841 102.285 300.675 102.285L300.765 102.135C300.965 102.135 301.141 102.17 301.295 102.24C301.448 102.31 301.57 102.413 301.66 102.55C301.75 102.683 301.795 102.85 301.795 103.05C301.795 103.35 301.681 103.583 301.455 103.75C301.231 103.913 300.898 103.995 300.455 103.995L298.785 103.995ZM299.285 103.59L300.435 103.59C300.711 103.59 300.923 103.543 301.07 103.45C301.216 103.357 301.29 103.21 301.29 103.01C301.29 102.807 301.216 102.658 301.07 102.565C300.923 102.472 300.711 102.425 300.435 102.425L299.24 102.425L299.24 102.02L300.31 102.02C300.563 102.02 300.76 101.973 300.9 101.88C301.04 101.787 301.11 101.647 301.11 101.46C301.11 101.273 301.04 101.133 300.9 101.04C300.76 100.947 300.563 100.9 300.31 100.9L299.285 100.9L299.285 103.59Z" fill="white"/>
<path d="M369.356 103.996L369.356 100.496L369.766 100.496L371.336 103.141L371.116 103.141L372.666 100.496L373.076 100.496L373.081 103.996L372.601 103.996L372.596 101.251L372.711 101.251L371.331 103.571L371.101 103.571L369.711 101.251L369.836 101.251L369.836 103.996L369.356 103.996ZM373.501 103.996L375.087 100.496L375.582 100.496L377.171 103.996L376.646 103.996L375.232 100.776L375.432 100.776L374.016 103.996L373.501 103.996ZM374.177 103.121L374.312 102.721L376.282 102.721L376.427 103.121L374.177 103.121ZM377.594 103.996L377.594 100.496L378.959 100.496C379.265 100.496 379.527 100.544 379.744 100.641C379.96 100.738 380.127 100.878 380.244 101.061C380.36 101.244 380.419 101.463 380.419 101.716C380.419 101.969 380.36 102.188 380.244 102.371C380.127 102.551 379.96 102.689 379.744 102.786C379.527 102.883 379.265 102.931 378.959 102.931L377.869 102.931L378.094 102.701L378.094 103.996L377.594 103.996ZM379.934 103.996L379.044 102.726L379.579 102.726L380.479 103.996L379.934 103.996ZM378.094 102.751L377.869 102.506L378.944 102.506C379.264 102.506 379.505 102.438 379.669 102.301C379.835 102.161 379.919 101.966 379.919 101.716C379.919 101.466 379.835 101.273 379.669 101.136C379.505 100.999 379.264 100.931 378.944 100.931L377.869 100.931L378.094 100.681L378.094 102.751Z" fill="white"/>
<path d="M452.31 103.997L453.895 100.497L454.39 100.497L455.98 103.997L455.455 103.997L454.04 100.777L454.24 100.777L452.825 103.997L452.31 103.997ZM452.985 103.122L453.12 102.722L455.09 102.722L455.235 103.122L452.985 103.122ZM456.402 103.997L456.403 100.497L457.768 100.497C458.074 100.497 458.336 100.545 458.553 100.642C458.769 100.738 458.936 100.878 459.053 101.062C459.169 101.245 459.228 101.463 459.227 101.717C459.227 101.97 459.169 102.188 459.052 102.372C458.936 102.552 458.769 102.692 458.552 102.792C458.336 102.888 458.074 102.937 457.767 102.937L456.677 102.937L456.902 102.702L456.902 103.997L456.402 103.997ZM456.902 102.752L456.677 102.502L457.752 102.502C458.072 102.502 458.314 102.433 458.477 102.297C458.644 102.16 458.727 101.967 458.727 101.717C458.728 101.467 458.644 101.273 458.478 101.137C458.314 101 458.073 100.932 457.753 100.932L456.678 100.932L456.903 100.682L456.902 102.752ZM459.862 103.997L459.862 100.497L461.227 100.497C461.534 100.497 461.795 100.545 462.012 100.642C462.229 100.738 462.395 100.878 462.512 101.062C462.629 101.245 462.687 101.464 462.687 101.717C462.687 101.97 462.629 102.189 462.512 102.372C462.395 102.552 462.229 102.69 462.012 102.787C461.795 102.883 461.534 102.932 461.227 102.932L460.137 102.932L460.362 102.702L460.362 103.997L459.862 103.997ZM462.202 103.997L461.312 102.727L461.847 102.727L462.747 103.997L462.202 103.997ZM460.362 102.752L460.137 102.507L461.212 102.507C461.532 102.507 461.774 102.438 461.937 102.302C462.104 102.162 462.187 101.967 462.187 101.717C462.187 101.467 462.104 101.273 461.937 101.137C461.774 101 461.532 100.932 461.212 100.932L460.137 100.932L460.362 100.682L460.362 102.752Z" fill="white"/>
<path d="M527.761 103.998L527.761 100.498L528.171 100.498L529.741 103.143L529.521 103.143L531.071 100.498L531.481 100.498L531.486 103.998L531.006 103.998L531.001 101.253L531.116 101.253L529.736 103.573L529.506 103.573L528.116 101.253L528.241 101.253L528.241 103.998L527.761 103.998ZM531.907 103.998L533.492 100.498L533.987 100.498L535.577 103.998L535.052 103.998L533.637 100.778L533.837 100.778L532.422 103.998L531.907 103.998ZM532.582 103.123L532.717 102.723L534.687 102.723L534.832 103.123L532.582 103.123ZM536.634 103.998L536.634 102.658L536.749 102.968L535.244 100.498L535.779 100.498L537.044 102.583L536.754 102.583L538.024 100.498L538.519 100.498L537.019 102.968L537.129 102.658L537.129 103.998L536.634 103.998Z" fill="white"/>
<path d="M608.982 104.039C608.775 104.039 608.582 103.996 608.402 103.909C608.222 103.822 608.075 103.697 607.962 103.534L608.252 103.194C608.349 103.327 608.457 103.431 608.577 103.504C608.7 103.574 608.835 103.609 608.982 103.609C609.382 103.609 609.582 103.372 609.582 102.899L609.582 100.934L608.317 100.934L608.317 100.499L610.077 100.499L610.077 102.874C610.077 103.264 609.984 103.556 609.797 103.749C609.614 103.942 609.342 104.039 608.982 104.039ZM612.445 104.039C611.985 104.039 611.624 103.908 611.36 103.644C611.097 103.381 610.965 102.996 610.966 102.489L610.966 100.499L611.466 100.499L611.466 102.469C611.465 102.859 611.55 103.144 611.72 103.324C611.894 103.504 612.137 103.594 612.45 103.594C612.767 103.594 613.01 103.504 613.18 103.324C613.354 103.144 613.44 102.859 613.441 102.469L613.441 100.499L613.926 100.499L613.926 102.489C613.925 102.996 613.794 103.381 613.53 103.644C613.27 103.908 612.909 104.039 612.445 104.039ZM614.851 103.999L614.851 100.499L615.261 100.499L617.576 103.374L617.361 103.374L617.361 100.499L617.861 100.499L617.861 103.999L617.451 103.999L615.136 101.124L615.351 101.124L615.351 103.999L614.851 103.999Z" fill="white"/>
<path d="M687.303 104.04C687.096 104.04 686.903 103.997 686.723 103.91C686.543 103.823 686.396 103.698 686.283 103.535L686.573 103.195C686.67 103.328 686.778 103.432 686.898 103.505C687.021 103.575 687.156 103.61 687.303 103.61C687.703 103.61 687.903 103.373 687.903 102.9L687.903 100.935L686.638 100.935L686.638 100.5L688.398 100.5L688.398 102.875C688.398 103.265 688.305 103.557 688.118 103.75C687.935 103.943 687.663 104.04 687.303 104.04ZM690.766 104.04C690.306 104.04 689.945 103.908 689.681 103.645C689.418 103.382 689.286 102.997 689.286 102.49L689.286 100.5L689.786 100.5L689.786 102.47C689.786 102.86 689.871 103.145 690.041 103.325C690.215 103.505 690.458 103.595 690.771 103.595C691.088 103.595 691.331 103.505 691.501 103.325C691.675 103.145 691.761 102.86 691.761 102.47L691.761 100.5L692.246 100.5L692.246 102.49C692.246 102.997 692.115 103.382 691.851 103.645C691.591 103.909 691.23 104.04 690.766 104.04ZM693.171 104L693.172 100.5L693.672 100.5L693.671 103.565L695.566 103.565L695.566 104L693.171 104Z" fill="white"/>
<path d="M764.415 104.001L766 100.501L766.495 100.501L768.085 104.001L767.56 104.001L766.145 100.781L766.345 100.781L764.93 104.001L764.415 104.001ZM765.09 103.126L765.225 102.726L767.195 102.726L767.34 103.126L765.09 103.126ZM769.884 104.041C769.424 104.041 769.062 103.91 768.799 103.646C768.535 103.383 768.404 102.998 768.404 102.491L768.404 100.501L768.904 100.501L768.904 102.471C768.904 102.861 768.989 103.146 769.159 103.326C769.332 103.506 769.575 103.596 769.889 103.596C770.205 103.596 770.449 103.506 770.619 103.326C770.792 103.146 770.879 102.861 770.879 102.471L770.879 100.501L771.364 100.501L771.364 102.491C771.364 102.998 771.232 103.383 770.969 103.646C770.709 103.91 770.347 104.041 769.884 104.041ZM773.869 104.041C773.599 104.041 773.35 103.998 773.124 103.911C772.897 103.821 772.7 103.696 772.534 103.536C772.367 103.373 772.237 103.183 772.144 102.966C772.05 102.75 772.004 102.511 772.004 102.251C772.004 101.991 772.05 101.753 772.144 101.536C772.237 101.32 772.367 101.131 772.534 100.971C772.704 100.808 772.902 100.683 773.129 100.596C773.355 100.506 773.605 100.461 773.879 100.461C774.155 100.461 774.409 100.506 774.639 100.596C774.869 100.686 775.064 100.821 775.224 101.001L774.914 101.311C774.77 101.171 774.614 101.07 774.444 101.006C774.277 100.94 774.095 100.906 773.899 100.906C773.699 100.906 773.512 100.94 773.339 101.006C773.169 101.073 773.02 101.166 772.894 101.286C772.77 101.406 772.674 101.55 772.604 101.716C772.537 101.88 772.504 102.058 772.504 102.251C772.504 102.441 772.537 102.62 772.604 102.786C772.674 102.95 772.77 103.093 772.894 103.216C773.02 103.336 773.169 103.43 773.339 103.496C773.509 103.563 773.694 103.596 773.894 103.596C774.08 103.596 774.259 103.568 774.429 103.511C774.602 103.451 774.762 103.353 774.909 103.216L775.194 103.596C775.02 103.743 774.817 103.855 774.584 103.931C774.354 104.005 774.115 104.041 773.869 104.041ZM774.714 103.531L774.714 102.231L775.194 102.231L775.194 103.596L774.714 103.531Z" fill="white"/>
<path d="M845.688 104.043C845.421 104.043 845.166 104.003 844.923 103.923C844.68 103.839 844.488 103.733 844.348 103.603L844.533 103.213C844.666 103.329 844.836 103.426 845.043 103.503C845.25 103.579 845.465 103.618 845.688 103.618C845.891 103.618 846.056 103.594 846.183 103.548C846.31 103.501 846.403 103.438 846.463 103.358C846.523 103.274 846.553 103.181 846.553 103.078C846.553 102.958 846.513 102.861 846.433 102.788C846.356 102.714 846.255 102.656 846.128 102.613C846.005 102.566 845.868 102.526 845.718 102.493C845.568 102.459 845.416 102.421 845.263 102.378C845.113 102.331 844.975 102.273 844.848 102.203C844.725 102.133 844.625 102.039 844.548 101.923C844.471 101.803 844.433 101.649 844.433 101.463C844.433 101.283 844.48 101.118 844.573 100.968C844.67 100.814 844.816 100.693 845.013 100.603C845.213 100.509 845.466 100.463 845.773 100.463C845.976 100.463 846.178 100.489 846.378 100.543C846.578 100.596 846.751 100.673 846.898 100.773L846.733 101.173C846.583 101.073 846.425 101.001 846.258 100.958C846.091 100.911 845.93 100.888 845.773 100.888C845.576 100.888 845.415 100.913 845.288 100.963C845.161 101.013 845.068 101.079 845.008 101.163C844.951 101.246 844.923 101.339 844.923 101.443C844.923 101.566 844.961 101.664 845.038 101.738C845.118 101.811 845.22 101.869 845.343 101.913C845.47 101.956 845.608 101.996 845.758 102.033C845.908 102.066 846.058 102.104 846.208 102.148C846.361 102.191 846.5 102.248 846.623 102.318C846.75 102.388 846.851 102.481 846.928 102.598C847.005 102.714 847.043 102.864 847.043 103.048C847.043 103.224 846.995 103.389 846.898 103.543C846.801 103.693 846.651 103.814 846.448 103.908C846.248 103.998 845.995 104.043 845.688 104.043ZM848.128 102.013L849.928 102.013L849.928 102.438L848.128 102.438L848.128 102.013ZM848.173 103.568L850.213 103.568L850.213 104.003L847.673 104.003L847.673 100.503L850.143 100.503L850.143 100.938L848.173 100.938L848.173 103.568ZM850.923 104.003L850.923 100.503L852.288 100.503C852.595 100.503 852.856 100.551 853.073 100.648C853.29 100.744 853.456 100.884 853.573 101.068C853.69 101.251 853.748 101.469 853.748 101.723C853.748 101.976 853.69 102.194 853.573 102.378C853.456 102.558 853.29 102.698 853.073 102.798C852.856 102.894 852.595 102.943 852.288 102.943L851.198 102.943L851.423 102.708L851.423 104.003L850.923 104.003ZM851.423 102.758L851.198 102.508L852.273 102.508C852.593 102.508 852.835 102.439 852.998 102.303C853.165 102.166 853.248 101.973 853.248 101.723C853.248 101.473 853.165 101.279 852.998 101.143C852.835 101.006 852.593 100.938 852.273 100.938L851.198 100.938L851.423 100.688L851.423 102.758Z" fill="white"/>
<path d="M921.151 104.044C920.885 104.044 920.636 103.999 920.406 103.909C920.18 103.819 919.983 103.694 919.816 103.534C919.65 103.37 919.52 103.18 919.426 102.964C919.333 102.747 919.286 102.51 919.286 102.254C919.286 101.997 919.333 101.76 919.426 101.544C919.52 101.327 919.65 101.139 919.816 100.979C919.983 100.815 920.18 100.689 920.406 100.599C920.633 100.509 920.881 100.464 921.151 100.464C921.418 100.464 921.663 100.509 921.886 100.599C922.113 100.685 922.31 100.81 922.476 100.974C922.646 101.134 922.776 101.322 922.866 101.539C922.96 101.755 923.006 101.994 923.006 102.254C923.006 102.514 922.96 102.752 922.866 102.969C922.776 103.185 922.646 103.375 922.476 103.539C922.31 103.699 922.113 103.824 921.886 103.914C921.663 104 921.418 104.044 921.151 104.044ZM921.151 103.599C921.345 103.599 921.523 103.565 921.686 103.499C921.853 103.432 921.996 103.339 922.116 103.219C922.24 103.095 922.335 102.952 922.401 102.789C922.471 102.625 922.506 102.447 922.506 102.254C922.506 102.06 922.471 101.882 922.401 101.719C922.335 101.555 922.24 101.414 922.116 101.294C921.996 101.17 921.853 101.075 921.686 101.009C921.523 100.942 921.345 100.909 921.151 100.909C920.955 100.909 920.773 100.942 920.606 101.009C920.443 101.075 920.3 101.17 920.176 101.294C920.053 101.414 919.956 101.555 919.886 101.719C919.82 101.882 919.786 102.06 919.786 102.254C919.786 102.447 919.82 102.625 919.886 102.789C919.956 102.952 920.053 103.095 920.176 103.219C920.3 103.339 920.443 103.432 920.606 103.499C920.773 103.565 920.955 103.599 921.151 103.599ZM925.236 104.044C924.969 104.044 924.722 104 924.496 103.914C924.272 103.824 924.077 103.699 923.911 103.539C923.747 103.375 923.619 103.185 923.526 102.969C923.432 102.752 923.386 102.514 923.386 102.254C923.386 101.994 923.432 101.755 923.526 101.539C923.619 101.322 923.749 101.134 923.916 100.974C924.082 100.81 924.277 100.685 924.501 100.599C924.727 100.509 924.974 100.464 925.241 100.464C925.511 100.464 925.759 100.51 925.986 100.604C926.216 100.694 926.411 100.829 926.571 101.009L926.246 101.324C926.112 101.184 925.962 101.08 925.796 101.014C925.629 100.944 925.451 100.909 925.261 100.909C925.064 100.909 924.881 100.942 924.711 101.009C924.544 101.075 924.399 101.169 924.276 101.289C924.152 101.409 924.056 101.552 923.986 101.719C923.919 101.882 923.886 102.06 923.886 102.254C923.886 102.447 923.919 102.627 923.986 102.794C924.056 102.957 924.152 103.099 924.276 103.219C924.399 103.339 924.544 103.432 924.711 103.499C924.881 103.565 925.064 103.599 925.261 103.599C925.451 103.599 925.629 103.565 925.796 103.499C925.962 103.429 926.112 103.322 926.246 103.179L926.571 103.494C926.411 103.674 926.216 103.81 925.986 103.904C925.759 103.997 925.509 104.044 925.236 104.044ZM927.84 104.004L927.84 100.939L926.64 100.939L926.64 100.504L929.535 100.504L929.535 100.939L928.335 100.939L928.335 104.004L927.84 104.004Z" fill="white"/>
<path d="M999.397 104.005L999.397 100.505L999.807 100.505L1002.12 103.38L1001.91 103.38L1001.91 100.505L1002.41 100.505L1002.41 104.005L1002 104.005L999.682 101.13L999.897 101.13L999.897 104.005L999.397 104.005ZM1004.93 104.045C1004.67 104.045 1004.42 104 1004.19 103.91C1003.96 103.82 1003.77 103.695 1003.6 103.535C1003.43 103.371 1003.3 103.181 1003.21 102.965C1003.12 102.748 1003.07 102.511 1003.07 102.255C1003.07 101.998 1003.12 101.761 1003.21 101.545C1003.3 101.328 1003.43 101.14 1003.6 100.98C1003.77 100.816 1003.96 100.69 1004.19 100.6C1004.42 100.51 1004.67 100.465 1004.94 100.465C1005.2 100.465 1005.45 100.51 1005.67 100.6C1005.9 100.686 1006.09 100.811 1006.26 100.975C1006.43 101.135 1006.56 101.323 1006.65 101.54C1006.74 101.756 1006.79 101.995 1006.79 102.255C1006.79 102.515 1006.74 102.753 1006.65 102.97C1006.56 103.186 1006.43 103.376 1006.26 103.54C1006.09 103.7 1005.9 103.825 1005.67 103.915C1005.45 104.001 1005.2 104.045 1004.93 104.045ZM1004.93 103.6C1005.13 103.6 1005.31 103.566 1005.47 103.5C1005.64 103.433 1005.78 103.34 1005.9 103.22C1006.02 103.096 1006.12 102.953 1006.18 102.79C1006.25 102.626 1006.29 102.448 1006.29 102.255C1006.29 102.061 1006.26 101.883 1006.19 101.72C1006.12 101.556 1006.02 101.415 1005.9 101.295C1005.78 101.171 1005.64 101.076 1005.47 101.01C1005.31 100.943 1005.13 100.91 1004.94 100.91C1004.74 100.91 1004.56 100.943 1004.39 101.01C1004.23 101.076 1004.08 101.171 1003.96 101.295C1003.84 101.415 1003.74 101.556 1003.67 101.72C1003.6 101.883 1003.57 102.061 1003.57 102.255C1003.57 102.448 1003.6 102.626 1003.67 102.79C1003.74 102.953 1003.84 103.096 1003.96 103.22C1004.08 103.34 1004.23 103.433 1004.39 103.5C1004.56 103.566 1004.74 103.6 1004.93 103.6ZM1008.36 104.005L1006.82 100.505L1007.36 100.505L1008.77 103.735L1008.46 103.735L1009.89 100.505L1010.39 100.505L1008.85 104.005L1008.36 104.005Z" fill="white"/>
<path d="M1161.32 104.045C1161.12 104.045 1160.92 104.001 1160.74 103.915C1160.56 103.828 1160.42 103.703 1160.3 103.54L1160.59 103.2C1160.69 103.333 1160.8 103.436 1160.92 103.51C1161.04 103.58 1161.18 103.615 1161.32 103.615C1161.72 103.615 1161.92 103.378 1161.92 102.905L1161.92 100.94L1160.66 100.94L1160.66 100.505L1162.42 100.505L1162.42 102.88C1162.42 103.27 1162.32 103.561 1162.14 103.755C1161.95 103.948 1161.68 104.045 1161.32 104.045ZM1162.73 104.005L1164.32 100.505L1164.81 100.505L1166.4 104.005L1165.88 104.005L1164.46 100.785L1164.66 100.785L1163.25 104.005L1162.73 104.005ZM1163.41 103.13L1163.54 102.73L1165.51 102.73L1165.66 103.13L1163.41 103.13ZM1166.82 104.005L1166.82 100.505L1167.23 100.505L1169.55 103.38L1169.33 103.38L1169.33 100.505L1169.83 100.505L1169.83 104.005L1169.42 104.005L1167.11 101.13L1167.32 101.13L1167.32 104.005L1166.82 104.005Z" fill="white"/>
<path d="M1080.03 104.005L1080.03 100.505L1081.51 100.506C1081.88 100.506 1082.21 100.579 1082.49 100.726C1082.78 100.872 1083 101.077 1083.16 101.341C1083.32 101.604 1083.4 101.909 1083.4 102.256C1083.4 102.602 1083.32 102.907 1083.16 103.171C1083 103.434 1082.78 103.639 1082.49 103.786C1082.21 103.932 1081.88 104.006 1081.51 104.006L1080.03 104.005ZM1080.53 103.57L1081.48 103.571C1081.77 103.571 1082.02 103.516 1082.23 103.406C1082.44 103.296 1082.61 103.142 1082.72 102.946C1082.84 102.746 1082.9 102.516 1082.9 102.256C1082.9 101.992 1082.84 101.762 1082.72 101.566C1082.61 101.369 1082.44 101.216 1082.23 101.106C1082.02 100.996 1081.77 100.941 1081.48 100.941L1080.53 100.94L1080.53 103.57ZM1084.52 102.016L1086.32 102.016L1086.32 102.441L1084.52 102.441L1084.52 102.016ZM1084.56 103.571L1086.6 103.571L1086.6 104.006L1084.06 104.006L1084.06 100.506L1086.53 100.506L1086.53 100.941L1084.56 100.941L1084.56 103.571ZM1088.87 104.046C1088.61 104.046 1088.36 104.002 1088.13 103.916C1087.91 103.826 1087.72 103.701 1087.55 103.541C1087.39 103.377 1087.26 103.187 1087.16 102.971C1087.07 102.754 1087.02 102.516 1087.02 102.256C1087.02 101.996 1087.07 101.757 1087.16 101.541C1087.26 101.324 1087.39 101.136 1087.55 100.976C1087.72 100.812 1087.92 100.687 1088.14 100.601C1088.37 100.511 1088.61 100.466 1088.88 100.466C1089.15 100.466 1089.4 100.512 1089.62 100.606C1089.85 100.696 1090.05 100.831 1090.21 101.011L1089.88 101.326C1089.75 101.186 1089.6 101.082 1089.43 101.016C1089.27 100.946 1089.09 100.911 1088.9 100.911C1088.7 100.911 1088.52 100.944 1088.35 101.011C1088.18 101.077 1088.04 101.171 1087.91 101.291C1087.79 101.411 1087.69 101.554 1087.62 101.721C1087.56 101.884 1087.52 102.062 1087.52 102.256C1087.52 102.449 1087.56 102.629 1087.62 102.796C1087.69 102.959 1087.79 103.101 1087.91 103.221C1088.04 103.341 1088.18 103.434 1088.35 103.501C1088.52 103.567 1088.7 103.601 1088.9 103.601C1089.09 103.601 1089.27 103.567 1089.43 103.501C1089.6 103.431 1089.75 103.324 1089.88 103.181L1090.21 103.496C1090.05 103.676 1089.85 103.812 1089.62 103.906C1089.4 103.999 1089.15 104.046 1088.87 104.046Z" fill="white"/>
<path d="M1241.6 102.161L1243.4 102.161L1243.4 102.591L1241.6 102.591L1241.6 102.161ZM1241.65 104.006L1241.15 104.005L1241.15 100.505L1243.62 100.506L1243.62 100.941L1241.65 100.941L1241.65 104.006ZM1244.68 102.016L1246.48 102.016L1246.48 102.441L1244.68 102.441L1244.68 102.016ZM1244.72 103.571L1246.76 103.571L1246.76 104.006L1244.22 104.006L1244.22 100.506L1246.69 100.506L1246.69 100.941L1244.72 100.941L1244.72 103.571ZM1247.47 104.006L1247.47 100.506L1249.04 100.506C1249.45 100.506 1249.76 100.587 1249.97 100.751C1250.19 100.911 1250.3 101.131 1250.3 101.411C1250.3 101.601 1250.25 101.761 1250.17 101.891C1250.08 102.021 1249.97 102.121 1249.83 102.191C1249.68 102.261 1249.53 102.296 1249.36 102.296L1249.45 102.146C1249.65 102.146 1249.83 102.181 1249.98 102.251C1250.14 102.321 1250.26 102.424 1250.35 102.561C1250.44 102.694 1250.48 102.861 1250.48 103.061C1250.48 103.361 1250.37 103.594 1250.14 103.761C1249.92 103.924 1249.59 104.006 1249.14 104.006L1247.47 104.006ZM1247.97 103.601L1249.12 103.601C1249.4 103.601 1249.61 103.554 1249.76 103.461C1249.9 103.367 1249.98 103.221 1249.98 103.021C1249.98 102.817 1249.9 102.669 1249.76 102.576C1249.61 102.482 1249.4 102.436 1249.12 102.436L1247.93 102.436L1247.93 102.031L1249 102.031C1249.25 102.031 1249.45 101.984 1249.59 101.891C1249.73 101.797 1249.8 101.657 1249.8 101.471C1249.8 101.284 1249.73 101.144 1249.59 101.051C1249.45 100.957 1249.25 100.911 1249 100.911L1247.97 100.911L1247.97 103.601Z" fill="white"/>
<path d="M69.8503 104V100.5H70.2603L72.5753 103.375H72.3603V100.5H72.8603V104H72.4503L70.1353 101.125H70.3503V104H69.8503ZM75.3879 104.04C75.1213 104.04 74.8729 103.995 74.6429 103.905C74.4163 103.815 74.2196 103.69 74.0529 103.53C73.8863 103.367 73.7563 103.177 73.6629 102.96C73.5696 102.743 73.5229 102.507 73.5229 102.25C73.5229 101.993 73.5696 101.757 73.6629 101.54C73.7563 101.323 73.8863 101.135 74.0529 100.975C74.2196 100.812 74.4163 100.685 74.6429 100.595C74.8696 100.505 75.1179 100.46 75.3879 100.46C75.6546 100.46 75.8996 100.505 76.1229 100.595C76.3496 100.682 76.5463 100.807 76.7129 100.97C76.8829 101.13 77.0129 101.318 77.1029 101.535C77.1963 101.752 77.2429 101.99 77.2429 102.25C77.2429 102.51 77.1963 102.748 77.1029 102.965C77.0129 103.182 76.8829 103.372 76.7129 103.535C76.5463 103.695 76.3496 103.82 76.1229 103.91C75.8996 103.997 75.6546 104.04 75.3879 104.04ZM75.3879 103.595C75.5813 103.595 75.7596 103.562 75.9229 103.495C76.0896 103.428 76.2329 103.335 76.3529 103.215C76.4763 103.092 76.5713 102.948 76.6379 102.785C76.7079 102.622 76.7429 102.443 76.7429 102.25C76.7429 102.057 76.7079 101.878 76.6379 101.715C76.5713 101.552 76.4763 101.41 76.3529 101.29C76.2329 101.167 76.0896 101.072 75.9229 101.005C75.7596 100.938 75.5813 100.905 75.3879 100.905C75.1913 100.905 75.0096 100.938 74.8429 101.005C74.6796 101.072 74.5363 101.167 74.4129 101.29C74.2896 101.41 74.1929 101.552 74.1229 101.715C74.0563 101.878 74.0229 102.057 74.0229 102.25C74.0229 102.443 74.0563 102.622 74.1229 102.785C74.1929 102.948 74.2896 103.092 74.4129 103.215C74.5363 103.335 74.6796 103.428 74.8429 103.495C75.0096 103.562 75.1913 103.595 75.3879 103.595ZM78.8097 104L77.2697 100.5H77.8097L79.2247 103.73H78.9147L80.3397 100.5H80.8397L79.3047 104H78.8097Z" fill="white"/>
<path d="M146.651 104V100.5H148.126C148.499 100.5 148.827 100.573 149.111 100.72C149.397 100.867 149.619 101.072 149.776 101.335C149.936 101.598 150.016 101.903 150.016 102.25C150.016 102.597 149.936 102.902 149.776 103.165C149.619 103.428 149.397 103.633 149.111 103.78C148.827 103.927 148.499 104 148.126 104H146.651ZM147.151 103.565H148.096C148.386 103.565 148.636 103.51 148.846 103.4C149.059 103.29 149.224 103.137 149.341 102.94C149.457 102.74 149.516 102.51 149.516 102.25C149.516 101.987 149.457 101.757 149.341 101.56C149.224 101.363 149.059 101.21 148.846 101.1C148.636 100.99 148.386 100.935 148.096 100.935H147.151V103.565ZM151.136 102.01H152.936V102.435H151.136V102.01ZM151.181 103.565H153.221V104H150.681V100.5H153.151V100.935H151.181V103.565ZM155.491 104.04C155.225 104.04 154.978 103.997 154.751 103.91C154.528 103.82 154.333 103.695 154.166 103.535C154.003 103.372 153.875 103.182 153.781 102.965C153.688 102.748 153.641 102.51 153.641 102.25C153.641 101.99 153.688 101.752 153.781 101.535C153.875 101.318 154.005 101.13 154.171 100.97C154.338 100.807 154.533 100.682 154.756 100.595C154.983 100.505 155.23 100.46 155.496 100.46C155.766 100.46 156.015 100.507 156.241 100.6C156.471 100.69 156.666 100.825 156.826 101.005L156.501 101.32C156.368 101.18 156.218 101.077 156.051 101.01C155.885 100.94 155.706 100.905 155.516 100.905C155.32 100.905 155.136 100.938 154.966 101.005C154.8 101.072 154.655 101.165 154.531 101.285C154.408 101.405 154.311 101.548 154.241 101.715C154.175 101.878 154.141 102.057 154.141 102.25C154.141 102.443 154.175 102.623 154.241 102.79C154.311 102.953 154.408 103.095 154.531 103.215C154.655 103.335 154.8 103.428 154.966 103.495C155.136 103.562 155.32 103.595 155.516 103.595C155.706 103.595 155.885 103.562 156.051 103.495C156.218 103.425 156.368 103.318 156.501 103.175L156.826 103.49C156.666 103.67 156.471 103.807 156.241 103.9C156.015 103.993 155.765 104.04 155.491 104.04Z" fill="white"/>
<defs>
<radialGradient id="paint0_radial_466_4653" cx="0" cy="0" r="1" gradientUnits="userSpaceOnUse" gradientTransform="translate(1179.73 -33.9893) rotate(125.108) scale(316.718 265.643)">
<stop stop-color="#303644"/>
<stop offset="1" stop-color="#282D3A"/>
</radialGradient>
<linearGradient id="paint1_linear_466_4653" x1="652" y1="51" x2="652" y2="471" gradientUnits="userSpaceOnUse">
<stop stop-color="white" stop-opacity="0"/>
<stop offset="0.484375" stop-color="white"/>
<stop offset="1" stop-color="white" stop-opacity="0"/>
</linearGradient>
<linearGradient id="paint2_linear_466_4653" x1="1090.29" y1="92" x2="825.865" y2="657.987" gradientUnits="userSpaceOnUse">
<stop stop-color="white" stop-opacity="0"/>
<stop offset="0.239583" stop-color="white"/>
<stop offset="0.708333" stop-color="white"/>
<stop offset="1" stop-color="white" stop-opacity="0"/>
</linearGradient>
<radialGradient id="paint3_radial_466_4653" cx="0" cy="0" r="1" gradientUnits="userSpaceOnUse" gradientTransform="translate(541.096 158.5) rotate(24.0031) scale(395.786 356.201)">
<stop stop-color="#219653" stop-opacity="0.48"/>
<stop offset="1" stop-color="#219653" stop-opacity="0"/>
</radialGradient>
<linearGradient id="paint4_linear_466_4653" x1="218.5" y1="81" x2="218.5" y2="406" gradientUnits="userSpaceOnUse">
<stop stop-color="white" stop-opacity="0"/>
<stop offset="0.208333" stop-color="white" stop-opacity="0.53"/>
<stop offset="1" stop-color="white" stop-opacity="0"/>
</linearGradient>
<linearGradient id="paint5_linear_466_4653" x1="75.5" y1="81" x2="75.5" y2="406" gradientUnits="userSpaceOnUse">
<stop stop-color="white" stop-opacity="0"/>
<stop offset="0.208333" stop-color="white" stop-opacity="0.53"/>
<stop offset="1" stop-color="white" stop-opacity="0"/>
</linearGradient>
<linearGradient id="paint6_linear_466_4653" x1="295.314" y1="81" x2="295.314" y2="406" gradientUnits="userSpaceOnUse">
<stop stop-color="white" stop-opacity="0"/>
<stop offset="0.208333" stop-color="white" stop-opacity="0.53"/>
<stop offset="1" stop-color="white" stop-opacity="0"/>
</linearGradient>
<linearGradient id="paint7_linear_466_4653" x1="152.314" y1="81" x2="152.314" y2="406" gradientUnits="userSpaceOnUse">
<stop stop-color="white" stop-opacity="0"/>
<stop offset="0.208333" stop-color="white" stop-opacity="0.53"/>
<stop offset="1" stop-color="white" stop-opacity="0"/>
</linearGradient>
<linearGradient id="paint8_linear_466_4653" x1="374.688" y1="81" x2="374.688" y2="406" gradientUnits="userSpaceOnUse">
<stop stop-color="white" stop-opacity="0"/>
<stop offset="0.208333" stop-color="white" stop-opacity="0.53"/>
<stop offset="1" stop-color="white" stop-opacity="0"/>
</linearGradient>
<linearGradient id="paint9_linear_466_4653" x1="454.063" y1="81" x2="454.063" y2="406" gradientUnits="userSpaceOnUse">
<stop stop-color="white" stop-opacity="0"/>
<stop offset="0.208333" stop-color="white" stop-opacity="0.53"/>
<stop offset="1" stop-color="white" stop-opacity="0"/>
</linearGradient>
<linearGradient id="paint10_linear_466_4653" x1="533.438" y1="81" x2="533.438" y2="406" gradientUnits="userSpaceOnUse">
<stop stop-color="white" stop-opacity="0"/>
<stop offset="0.208333" stop-color="white" stop-opacity="0.53"/>
<stop offset="1" stop-color="white" stop-opacity="0"/>
</linearGradient>
<linearGradient id="paint11_linear_466_4653" x1="612.812" y1="81" x2="612.812" y2="406" gradientUnits="userSpaceOnUse">
<stop stop-color="white" stop-opacity="0"/>
<stop offset="0.208333" stop-color="white" stop-opacity="0.53"/>
<stop offset="1" stop-color="white" stop-opacity="0"/>
</linearGradient>
<linearGradient id="paint12_linear_466_4653" x1="692.188" y1="81" x2="692.188" y2="406" gradientUnits="userSpaceOnUse">
<stop stop-color="white" stop-opacity="0"/>
<stop offset="0.208333" stop-color="white" stop-opacity="0.53"/>
<stop offset="1" stop-color="white" stop-opacity="0"/>
</linearGradient>
<linearGradient id="paint13_linear_466_4653" x1="771.562" y1="81" x2="771.562" y2="406" gradientUnits="userSpaceOnUse">
<stop stop-color="white" stop-opacity="0"/>
<stop offset="0.208333" stop-color="white" stop-opacity="0.53"/>
<stop offset="1" stop-color="white" stop-opacity="0"/>
</linearGradient>
<linearGradient id="paint14_linear_466_4653" x1="848.376" y1="81" x2="848.376" y2="406" gradientUnits="userSpaceOnUse">
<stop stop-color="white" stop-opacity="0"/>
<stop offset="0.208333" stop-color="white" stop-opacity="0.53"/>
<stop offset="1" stop-color="white" stop-opacity="0"/>
</linearGradient>
<linearGradient id="paint15_linear_466_4653" x1="927.75" y1="81" x2="927.75" y2="406" gradientUnits="userSpaceOnUse">
<stop stop-color="white" stop-opacity="0"/>
<stop offset="0.208333" stop-color="white" stop-opacity="0.53"/>
<stop offset="1" stop-color="white" stop-opacity="0"/>
</linearGradient>
<linearGradient id="paint16_linear_466_4653" x1="1164.75" y1="71" x2="1164.75" y2="396" gradientUnits="userSpaceOnUse">
<stop stop-color="white" stop-opacity="0"/>
<stop offset="0.208333" stop-color="white" stop-opacity="0.53"/>
<stop offset="1" stop-color="white" stop-opacity="0"/>
</linearGradient>
<linearGradient id="paint17_linear_466_4653" x1="1007.13" y1="81" x2="1007.13" y2="406" gradientUnits="userSpaceOnUse">
<stop stop-color="white" stop-opacity="0"/>
<stop offset="0.208333" stop-color="white" stop-opacity="0.53"/>
<stop offset="1" stop-color="white" stop-opacity="0"/>
</linearGradient>
<linearGradient id="paint18_linear_466_4653" x1="1244.12" y1="71" x2="1244.12" y2="396" gradientUnits="userSpaceOnUse">
<stop stop-color="white" stop-opacity="0"/>
<stop offset="0.208333" stop-color="white" stop-opacity="0.53"/>
<stop offset="1" stop-color="white" stop-opacity="0"/>
</linearGradient>
<linearGradient id="paint19_linear_466_4653" x1="1086.5" y1="81" x2="1086.5" y2="406" gradientUnits="userSpaceOnUse">
<stop stop-color="white" stop-opacity="0"/>
<stop offset="0.208333" stop-color="white" stop-opacity="0.53"/>
<stop offset="1" stop-color="white" stop-opacity="0"/>
</linearGradient>
</defs>
</svg>
