<svg width="111" height="21" viewBox="0 0 111 21" fill="none" xmlns="http://www.w3.org/2000/svg">
<path d="M38.472 16.128C37.6827 16.128 36.9147 16.0053 36.168 15.76C35.432 15.5147 34.8293 15.184 34.36 14.768L35.096 13.504C35.4693 13.856 35.9547 14.144 36.552 14.368C37.1493 14.592 37.7893 14.704 38.472 14.704C39.304 14.704 39.9493 14.528 40.408 14.176C40.8773 13.8133 41.112 13.328 41.112 12.72C41.112 12.1333 40.888 11.664 40.44 11.312C40.0027 10.9493 39.304 10.768 38.344 10.768H37.448V9.648L40.776 5.552L41 6.192H34.872V4.8H42.264V5.888L38.952 9.968L38.12 9.472H38.648C40.0027 9.472 41.016 9.776 41.688 10.384C42.3707 10.992 42.712 11.7653 42.712 12.704C42.712 13.3333 42.5573 13.9093 42.248 14.432C41.9387 14.9547 41.4693 15.3707 40.84 15.68C40.2213 15.9787 39.432 16.128 38.472 16.128ZM47.2301 16.128C46.4408 16.128 45.6728 16.0053 44.9261 15.76C44.1901 15.5147 43.5875 15.184 43.1181 14.768L43.8541 13.504C44.2275 13.856 44.7128 14.144 45.3101 14.368C45.9075 14.592 46.5475 14.704 47.2301 14.704C48.0621 14.704 48.7075 14.528 49.1661 14.176C49.6355 13.8133 49.8701 13.328 49.8701 12.72C49.8701 12.1333 49.6461 11.664 49.1981 11.312C48.7608 10.9493 48.0621 10.768 47.1021 10.768H46.2061V9.648L49.5341 5.552L49.7581 6.192H43.6301V4.8H51.0221V5.888L47.7101 9.968L46.8781 9.472H47.4061C48.7608 9.472 49.7741 9.776 50.4461 10.384C51.1288 10.992 51.4701 11.7653 51.4701 12.704C51.4701 13.3333 51.3155 13.9093 51.0061 14.432C50.6968 14.9547 50.2275 15.3707 49.5981 15.68C48.9795 15.9787 48.1901 16.128 47.2301 16.128ZM61.8032 16.096C61.0992 16.096 60.4539 15.936 59.8672 15.616C59.2912 15.2853 58.8272 14.8 58.4752 14.16C58.1339 13.52 57.9632 12.72 57.9632 11.76C57.9632 10.8 58.1286 10 58.4592 9.36C58.8006 8.72 59.2592 8.24 59.8352 7.92C60.4219 7.6 61.0779 7.44 61.8032 7.44C62.6352 7.44 63.3712 7.62133 64.0112 7.984C64.6512 8.34667 65.1579 8.85333 65.5312 9.504C65.9046 10.144 66.0912 10.896 66.0912 11.76C66.0912 12.624 65.9046 13.3813 65.5312 14.032C65.1579 14.6827 64.6512 15.1893 64.0112 15.552C63.3712 15.9147 62.6352 16.096 61.8032 16.096ZM57.3072 19.104V7.52H58.7792V9.808L58.6832 11.776L58.8432 13.744V19.104H57.3072ZM61.6752 14.752C62.2192 14.752 62.7046 14.6293 63.1312 14.384C63.5686 14.1387 63.9099 13.792 64.1552 13.344C64.4112 12.8853 64.5392 12.3573 64.5392 11.76C64.5392 11.152 64.4112 10.6293 64.1552 10.192C63.9099 9.744 63.5686 9.39733 63.1312 9.152C62.7046 8.90667 62.2192 8.784 61.6752 8.784C61.1419 8.784 60.6566 8.90667 60.2192 9.152C59.7926 9.39733 59.4512 9.744 59.1952 10.192C58.9499 10.6293 58.8272 11.152 58.8272 11.76C58.8272 12.3573 58.9499 12.8853 59.1952 13.344C59.4512 13.792 59.7926 14.1387 60.2192 14.384C60.6566 14.6293 61.1419 14.752 61.6752 14.752ZM72.4215 7.44C73.1148 7.44 73.7228 7.57333 74.2455 7.84C74.7788 8.10667 75.1948 8.512 75.4935 9.056C75.7922 9.6 75.9415 10.288 75.9415 11.12V16H74.4055V11.296C74.4055 10.4747 74.2028 9.856 73.7975 9.44C73.4028 9.024 72.8428 8.816 72.1175 8.816C71.5735 8.816 71.0988 8.92267 70.6935 9.136C70.2882 9.34933 69.9735 9.664 69.7495 10.08C69.5362 10.496 69.4295 11.0133 69.4295 11.632V16H67.8935V4.128H69.4295V9.808L69.1255 9.2C69.4028 8.64533 69.8295 8.21333 70.4055 7.904C70.9815 7.59467 71.6535 7.44 72.4215 7.44ZM82.0961 16.096C81.2428 16.096 80.4855 15.9093 79.8241 15.536C79.1628 15.1627 78.6401 14.6507 78.2561 14C77.8721 13.3387 77.6801 12.592 77.6801 11.76C77.6801 10.9173 77.8721 10.1707 78.2561 9.52C78.6401 8.86933 79.1628 8.36267 79.8241 8C80.4855 7.62667 81.2428 7.44 82.0961 7.44C82.9388 7.44 83.6908 7.62667 84.3521 8C85.0241 8.36267 85.5468 8.86933 85.9201 9.52C86.3041 10.16 86.4961 10.9067 86.4961 11.76C86.4961 12.6027 86.3041 13.3493 85.9201 14C85.5468 14.6507 85.0241 15.1627 84.3521 15.536C83.6908 15.9093 82.9388 16.096 82.0961 16.096ZM82.0961 14.752C82.6401 14.752 83.1255 14.6293 83.5521 14.384C83.9895 14.1387 84.3308 13.792 84.5761 13.344C84.8215 12.8853 84.9441 12.3573 84.9441 11.76C84.9441 11.152 84.8215 10.6293 84.5761 10.192C84.3308 9.744 83.9895 9.39733 83.5521 9.152C83.1255 8.90667 82.6401 8.784 82.0961 8.784C81.5521 8.784 81.0668 8.90667 80.6401 9.152C80.2135 9.39733 79.8721 9.744 79.6161 10.192C79.3601 10.6293 79.2321 11.152 79.2321 11.76C79.2321 12.3573 79.3601 12.8853 79.6161 13.344C79.8721 13.792 80.2135 14.1387 80.6401 14.384C81.0668 14.6293 81.5521 14.752 82.0961 14.752ZM91.2124 16.096C90.359 16.096 89.6977 15.8667 89.2284 15.408C88.759 14.9493 88.5244 14.2933 88.5244 13.44V5.664H90.0604V13.376C90.0604 13.8347 90.1724 14.1867 90.3964 14.432C90.631 14.6773 90.9617 14.8 91.3884 14.8C91.8684 14.8 92.2684 14.6667 92.5884 14.4L93.0684 15.504C92.8337 15.7067 92.551 15.856 92.2204 15.952C91.9004 16.048 91.5644 16.096 91.2124 16.096ZM87.0844 8.784V7.52H92.4924V8.784H87.0844ZM97.9561 16.096C97.1028 16.096 96.3455 15.9093 95.6841 15.536C95.0228 15.1627 94.5001 14.6507 94.1161 14C93.7321 13.3387 93.5401 12.592 93.5401 11.76C93.5401 10.9173 93.7321 10.1707 94.1161 9.52C94.5001 8.86933 95.0228 8.36267 95.6841 8C96.3455 7.62667 97.1028 7.44 97.9561 7.44C98.7988 7.44 99.5508 7.62667 100.212 8C100.884 8.36267 101.407 8.86933 101.78 9.52C102.164 10.16 102.356 10.9067 102.356 11.76C102.356 12.6027 102.164 13.3493 101.78 14C101.407 14.6507 100.884 15.1627 100.212 15.536C99.5508 15.9093 98.7988 16.096 97.9561 16.096ZM97.9561 14.752C98.5001 14.752 98.9855 14.6293 99.4121 14.384C99.8495 14.1387 100.191 13.792 100.436 13.344C100.681 12.8853 100.804 12.3573 100.804 11.76C100.804 11.152 100.681 10.6293 100.436 10.192C100.191 9.744 99.8495 9.39733 99.4121 9.152C98.9855 8.90667 98.5001 8.784 97.9561 8.784C97.4121 8.784 96.9268 8.90667 96.5001 9.152C96.0735 9.39733 95.7321 9.744 95.4761 10.192C95.2201 10.6293 95.0921 11.152 95.0921 11.76C95.0921 12.3573 95.2201 12.8853 95.4761 13.344C95.7321 13.792 96.0735 14.1387 96.5001 14.384C96.9268 14.6293 97.4121 14.752 97.9561 14.752ZM106.592 16.096C105.888 16.096 105.216 16 104.576 15.808C103.947 15.616 103.451 15.3813 103.088 15.104L103.728 13.888C104.091 14.1333 104.539 14.3413 105.072 14.512C105.606 14.6827 106.15 14.768 106.704 14.768C107.419 14.768 107.931 14.6667 108.24 14.464C108.56 14.2613 108.72 13.9787 108.72 13.616C108.72 13.3493 108.624 13.1413 108.432 12.992C108.24 12.8427 107.984 12.7307 107.664 12.656C107.355 12.5813 107.008 12.5173 106.624 12.464C106.24 12.4 105.856 12.3253 105.472 12.24C105.088 12.144 104.736 12.016 104.416 11.856C104.096 11.6853 103.84 11.456 103.648 11.168C103.456 10.8693 103.36 10.4747 103.36 9.984C103.36 9.472 103.504 9.024 103.792 8.64C104.08 8.256 104.486 7.96267 105.008 7.76C105.542 7.54667 106.171 7.44 106.896 7.44C107.451 7.44 108.011 7.50933 108.576 7.648C109.152 7.776 109.622 7.96267 109.984 8.208L109.328 9.424C108.944 9.168 108.544 8.992 108.128 8.896C107.712 8.8 107.296 8.752 106.88 8.752C106.208 8.752 105.707 8.864 105.376 9.088C105.046 9.30133 104.88 9.57867 104.88 9.92C104.88 10.208 104.976 10.432 105.168 10.592C105.371 10.7413 105.627 10.8587 105.936 10.944C106.256 11.0293 106.608 11.104 106.992 11.168C107.376 11.2213 107.76 11.296 108.144 11.392C108.528 11.4773 108.875 11.6 109.184 11.76C109.504 11.92 109.76 12.144 109.952 12.432C110.155 12.72 110.256 13.104 110.256 13.584C110.256 14.096 110.107 14.5387 109.808 14.912C109.51 15.2853 109.088 15.5787 108.544 15.792C108 15.9947 107.35 16.096 106.592 16.096Z" fill="white"/>
<path d="M34.28 18H110.72V18.8H34.28V18Z" fill="white"/>
<rect x="4.5" y="4.5" width="17" height="12" rx="1.5" stroke="white"/>
<path fill-rule="evenodd" clip-rule="evenodd" d="M3 8H2C0.895431 8 0 8.89543 0 10V19C0 20.1046 0.89543 21 2 21H16C17.1046 21 18 20.1046 18 19V18H17V19C17 19.5523 16.5523 20 16 20H2C1.44772 20 1 19.5523 1 19V10C1 9.44772 1.44772 9 2 9H3V8Z" fill="white"/>
<path d="M9.0798 10.9044L7.6966 12.2947C7.06911 12.9254 7.51584 14 8.40551 14H18C18.5523 14 19 13.5523 19 13V10.1606C19 9.92756 18.9186 9.7018 18.7698 9.52238L17.4155 7.88888C17.0268 7.41997 16.3126 7.40459 15.904 7.85634L12.6687 11.4335C12.3133 11.8264 11.7132 11.874 11.3004 11.542L10.4154 10.8304C10.0168 10.5099 9.44054 10.5418 9.0798 10.9044Z" fill="white"/>
</svg>
