<svg width="26" height="30" viewBox="0 0 26 30" fill="none" xmlns="http://www.w3.org/2000/svg">
<path d="M4.16295 9.50616C4.16295 4.80833 8.05527 1 12.8567 1C17.6582 1 21.5504 4.80833 21.5504 9.50616V12.5993C21.5504 15.1091 22.3823 17.5511 23.9215 19.5589L24.2602 20.0008C24.3756 20.1512 24.4331 20.2264 24.4666 20.2782C25.1032 21.262 24.4423 22.5552 23.256 22.6473C23.1937 22.652 23.0976 22.652 22.9052 22.652H2.80809C2.61585 22.652 2.51974 22.652 2.4574 22.6473C1.27105 22.5552 0.610153 21.262 1.24676 20.2782C1.2802 20.2264 1.33788 20.1512 1.45321 20.0008L1.79193 19.5589C3.33099 17.5511 4.16295 15.1091 4.16295 12.5993V9.50616Z" stroke="black" stroke-width="1.5"/>
<path fill-rule="evenodd" clip-rule="evenodd" d="M8.80761 25.7702C9.23218 25.6669 9.66857 25.8957 9.78232 26.2812C9.96369 26.896 10.3634 27.4393 10.9193 27.8267C11.4753 28.2141 12.1565 28.4241 12.8573 28.4241C13.558 28.4241 14.2392 28.2141 14.7952 27.8267C15.3511 27.4393 15.7508 26.896 15.9322 26.2813C16.0459 25.8957 16.4823 25.6669 16.9068 25.7702C17.3314 25.8734 17.5834 26.2697 17.4697 26.6553C17.1977 27.5774 16.5981 28.3924 15.7641 28.9735C14.9302 29.5546 13.9084 29.8696 12.8573 29.8696C11.8061 29.8696 10.7843 29.5546 9.95036 28.9735C9.11639 28.3924 8.51688 27.5774 8.24484 26.6553C8.13109 26.2698 8.38305 25.8735 8.80761 25.7702Z" fill="black"/>
</svg>
