<svg width="114" height="21" viewBox="0 0 114 21" fill="none" xmlns="http://www.w3.org/2000/svg">
<path d="M32.8226 16V5.44L33.5106 6.192H30.2946V4.8H34.4066V16H32.8226ZM41.1124 16.128C40.2378 16.128 39.4538 15.904 38.7604 15.456C38.0778 15.008 37.5338 14.3573 37.1284 13.504C36.7338 12.6507 36.5364 11.616 36.5364 10.4C36.5364 9.184 36.7338 8.14933 37.1284 7.296C37.5338 6.44267 38.0778 5.792 38.7604 5.344C39.4538 4.896 40.2378 4.672 41.1124 4.672C41.9764 4.672 42.7551 4.896 43.4484 5.344C44.1418 5.792 44.6858 6.44267 45.0804 7.296C45.4751 8.14933 45.6724 9.184 45.6724 10.4C45.6724 11.616 45.4751 12.6507 45.0804 13.504C44.6858 14.3573 44.1418 15.008 43.4484 15.456C42.7551 15.904 41.9764 16.128 41.1124 16.128ZM41.1124 14.704C41.6991 14.704 42.2111 14.544 42.6484 14.224C43.0964 13.904 43.4431 13.424 43.6884 12.784C43.9444 12.144 44.0724 11.3493 44.0724 10.4C44.0724 9.45067 43.9444 8.656 43.6884 8.016C43.4431 7.376 43.0964 6.896 42.6484 6.576C42.2111 6.256 41.6991 6.096 41.1124 6.096C40.5258 6.096 40.0084 6.256 39.5604 6.576C39.1124 6.896 38.7604 7.376 38.5044 8.016C38.2591 8.656 38.1364 9.45067 38.1364 10.4C38.1364 11.3493 38.2591 12.144 38.5044 12.784C38.7604 13.424 39.1124 13.904 39.5604 14.224C40.0084 14.544 40.5258 14.704 41.1124 14.704ZM46.7123 16V14.912L51.2723 10.512C51.6776 10.128 51.9763 9.792 52.1683 9.504C52.371 9.20533 52.5043 8.93333 52.5683 8.688C52.643 8.432 52.6803 8.18667 52.6803 7.952C52.6803 7.376 52.4776 6.92267 52.0723 6.592C51.667 6.26133 51.075 6.096 50.2963 6.096C49.699 6.096 49.1603 6.19733 48.6803 6.4C48.2003 6.592 47.7843 6.896 47.4323 7.312L46.3443 6.368C46.771 5.824 47.3416 5.408 48.0563 5.12C48.7816 4.82133 49.5763 4.672 50.4403 4.672C51.219 4.672 51.8963 4.8 52.4723 5.056C53.0483 5.30133 53.491 5.65867 53.8003 6.128C54.1203 6.59733 54.2803 7.152 54.2803 7.792C54.2803 8.15467 54.2323 8.512 54.1363 8.864C54.0403 9.216 53.859 9.58933 53.5923 9.984C53.3256 10.3787 52.9416 10.8213 52.4403 11.312L48.3763 15.232L47.9923 14.608H54.7603V16H46.7123ZM64.9167 16.096C64.2127 16.096 63.5674 15.936 62.9807 15.616C62.4047 15.2853 61.9407 14.8 61.5887 14.16C61.2474 13.52 61.0767 12.72 61.0767 11.76C61.0767 10.8 61.242 10 61.5727 9.36C61.914 8.72 62.3727 8.24 62.9487 7.92C63.5354 7.6 64.1914 7.44 64.9167 7.44C65.7487 7.44 66.4847 7.62133 67.1247 7.984C67.7647 8.34667 68.2714 8.85333 68.6447 9.504C69.018 10.144 69.2047 10.896 69.2047 11.76C69.2047 12.624 69.018 13.3813 68.6447 14.032C68.2714 14.6827 67.7647 15.1893 67.1247 15.552C66.4847 15.9147 65.7487 16.096 64.9167 16.096ZM60.4207 19.104V7.52H61.8927V9.808L61.7967 11.776L61.9567 13.744V19.104H60.4207ZM64.7887 14.752C65.3327 14.752 65.818 14.6293 66.2447 14.384C66.682 14.1387 67.0234 13.792 67.2687 13.344C67.5247 12.8853 67.6527 12.3573 67.6527 11.76C67.6527 11.152 67.5247 10.6293 67.2687 10.192C67.0234 9.744 66.682 9.39733 66.2447 9.152C65.818 8.90667 65.3327 8.784 64.7887 8.784C64.2554 8.784 63.77 8.90667 63.3327 9.152C62.906 9.39733 62.5647 9.744 62.3087 10.192C62.0634 10.6293 61.9407 11.152 61.9407 11.76C61.9407 12.3573 62.0634 12.8853 62.3087 13.344C62.5647 13.792 62.906 14.1387 63.3327 14.384C63.77 14.6293 64.2554 14.752 64.7887 14.752ZM75.5349 7.44C76.2283 7.44 76.8363 7.57333 77.3589 7.84C77.8923 8.10667 78.3083 8.512 78.6069 9.056C78.9056 9.6 79.0549 10.288 79.0549 11.12V16H77.5189V11.296C77.5189 10.4747 77.3163 9.856 76.9109 9.44C76.5163 9.024 75.9563 8.816 75.2309 8.816C74.6869 8.816 74.2123 8.92267 73.8069 9.136C73.4016 9.34933 73.0869 9.664 72.8629 10.08C72.6496 10.496 72.5429 11.0133 72.5429 11.632V16H71.0069V4.128H72.5429V9.808L72.2389 9.2C72.5163 8.64533 72.9429 8.21333 73.5189 7.904C74.0949 7.59467 74.7669 7.44 75.5349 7.44ZM85.2096 16.096C84.3562 16.096 83.5989 15.9093 82.9376 15.536C82.2762 15.1627 81.7536 14.6507 81.3696 14C80.9856 13.3387 80.7936 12.592 80.7936 11.76C80.7936 10.9173 80.9856 10.1707 81.3696 9.52C81.7536 8.86933 82.2762 8.36267 82.9376 8C83.5989 7.62667 84.3562 7.44 85.2096 7.44C86.0522 7.44 86.8042 7.62667 87.4656 8C88.1376 8.36267 88.6602 8.86933 89.0336 9.52C89.4176 10.16 89.6096 10.9067 89.6096 11.76C89.6096 12.6027 89.4176 13.3493 89.0336 14C88.6602 14.6507 88.1376 15.1627 87.4656 15.536C86.8042 15.9093 86.0522 16.096 85.2096 16.096ZM85.2096 14.752C85.7536 14.752 86.2389 14.6293 86.6656 14.384C87.1029 14.1387 87.4442 13.792 87.6896 13.344C87.9349 12.8853 88.0576 12.3573 88.0576 11.76C88.0576 11.152 87.9349 10.6293 87.6896 10.192C87.4442 9.744 87.1029 9.39733 86.6656 9.152C86.2389 8.90667 85.7536 8.784 85.2096 8.784C84.6656 8.784 84.1802 8.90667 83.7536 9.152C83.3269 9.39733 82.9856 9.744 82.7296 10.192C82.4736 10.6293 82.3456 11.152 82.3456 11.76C82.3456 12.3573 82.4736 12.8853 82.7296 13.344C82.9856 13.792 83.3269 14.1387 83.7536 14.384C84.1802 14.6293 84.6656 14.752 85.2096 14.752ZM94.3258 16.096C93.4725 16.096 92.8111 15.8667 92.3418 15.408C91.8725 14.9493 91.6378 14.2933 91.6378 13.44V5.664H93.1738V13.376C93.1738 13.8347 93.2858 14.1867 93.5098 14.432C93.7445 14.6773 94.0751 14.8 94.5018 14.8C94.9818 14.8 95.3818 14.6667 95.7018 14.4L96.1818 15.504C95.9471 15.7067 95.6645 15.856 95.3338 15.952C95.0138 16.048 94.6778 16.096 94.3258 16.096ZM90.1978 8.784V7.52H95.6058V8.784H90.1978ZM101.07 16.096C100.216 16.096 99.4589 15.9093 98.7976 15.536C98.1362 15.1627 97.6136 14.6507 97.2296 14C96.8456 13.3387 96.6536 12.592 96.6536 11.76C96.6536 10.9173 96.8456 10.1707 97.2296 9.52C97.6136 8.86933 98.1362 8.36267 98.7976 8C99.4589 7.62667 100.216 7.44 101.07 7.44C101.912 7.44 102.664 7.62667 103.326 8C103.998 8.36267 104.52 8.86933 104.894 9.52C105.278 10.16 105.47 10.9067 105.47 11.76C105.47 12.6027 105.278 13.3493 104.894 14C104.52 14.6507 103.998 15.1627 103.326 15.536C102.664 15.9093 101.912 16.096 101.07 16.096ZM101.07 14.752C101.614 14.752 102.099 14.6293 102.526 14.384C102.963 14.1387 103.304 13.792 103.55 13.344C103.795 12.8853 103.918 12.3573 103.918 11.76C103.918 11.152 103.795 10.6293 103.55 10.192C103.304 9.744 102.963 9.39733 102.526 9.152C102.099 8.90667 101.614 8.784 101.07 8.784C100.526 8.784 100.04 8.90667 99.6136 9.152C99.1869 9.39733 98.8456 9.744 98.5896 10.192C98.3336 10.6293 98.2056 11.152 98.2056 11.76C98.2056 12.3573 98.3336 12.8853 98.5896 13.344C98.8456 13.792 99.1869 14.1387 99.6136 14.384C100.04 14.6293 100.526 14.752 101.07 14.752ZM109.706 16.096C109.002 16.096 108.33 16 107.69 15.808C107.06 15.616 106.564 15.3813 106.202 15.104L106.842 13.888C107.204 14.1333 107.652 14.3413 108.186 14.512C108.719 14.6827 109.263 14.768 109.818 14.768C110.532 14.768 111.044 14.6667 111.354 14.464C111.674 14.2613 111.834 13.9787 111.834 13.616C111.834 13.3493 111.738 13.1413 111.546 12.992C111.354 12.8427 111.098 12.7307 110.778 12.656C110.468 12.5813 110.122 12.5173 109.738 12.464C109.354 12.4 108.97 12.3253 108.586 12.24C108.202 12.144 107.85 12.016 107.53 11.856C107.21 11.6853 106.954 11.456 106.762 11.168C106.57 10.8693 106.474 10.4747 106.474 9.984C106.474 9.472 106.618 9.024 106.906 8.64C107.194 8.256 107.599 7.96267 108.122 7.76C108.655 7.54667 109.284 7.44 110.01 7.44C110.564 7.44 111.124 7.50933 111.69 7.648C112.266 7.776 112.735 7.96267 113.098 8.208L112.442 9.424C112.058 9.168 111.658 8.992 111.242 8.896C110.826 8.8 110.41 8.752 109.994 8.752C109.322 8.752 108.82 8.864 108.49 9.088C108.159 9.30133 107.994 9.57867 107.994 9.92C107.994 10.208 108.09 10.432 108.282 10.592C108.484 10.7413 108.74 10.8587 109.05 10.944C109.37 11.0293 109.722 11.104 110.106 11.168C110.49 11.2213 110.874 11.296 111.258 11.392C111.642 11.4773 111.988 11.6 112.298 11.76C112.618 11.92 112.874 12.144 113.066 12.432C113.268 12.72 113.37 13.104 113.37 13.584C113.37 14.096 113.22 14.5387 112.922 14.912C112.623 15.2853 112.202 15.5787 111.658 15.792C111.114 15.9947 110.463 16.096 109.706 16.096Z" fill="white"/>
<path d="M30.1666 18H113.834V18.8H30.1666V18Z" fill="white"/>
<rect x="4.5" y="4.5" width="17" height="12" rx="1.5" stroke="white"/>
<path fill-rule="evenodd" clip-rule="evenodd" d="M3 8H2C0.895431 8 0 8.89543 0 10V19C0 20.1046 0.89543 21 2 21H16C17.1046 21 18 20.1046 18 19V18H17V19C17 19.5523 16.5523 20 16 20H2C1.44772 20 1 19.5523 1 19V10C1 9.44772 1.44772 9 2 9H3V8Z" fill="white"/>
<path d="M9.0798 10.9044L7.6966 12.2947C7.06911 12.9254 7.51584 14 8.40551 14H18C18.5523 14 19 13.5523 19 13V10.1606C19 9.92756 18.9186 9.7018 18.7698 9.52238L17.4155 7.88888C17.0268 7.41997 16.3126 7.40459 15.904 7.85634L12.6687 11.4335C12.3133 11.8264 11.7132 11.874 11.3004 11.542L10.4154 10.8304C10.0168 10.5099 9.44054 10.5418 9.0798 10.9044Z" fill="white"/>
</svg>
