<svg width="108" height="21" viewBox="0 0 108 21" fill="none" xmlns="http://www.w3.org/2000/svg">
<path d="M40.1313 16V5.44L40.8193 6.192H37.6033V4.8H41.7153V16H40.1313ZM45.7332 16V5.44L46.4212 6.192H43.2052V4.8H47.3172V16H45.7332ZM58.6079 16.096C57.9039 16.096 57.2586 15.936 56.6719 15.616C56.0959 15.2853 55.6319 14.8 55.2799 14.16C54.9386 13.52 54.7679 12.72 54.7679 11.76C54.7679 10.8 54.9333 10 55.2639 9.36C55.6053 8.72 56.0639 8.24 56.6399 7.92C57.2266 7.6 57.8826 7.44 58.6079 7.44C59.4399 7.44 60.1759 7.62133 60.8159 7.984C61.4559 8.34667 61.9626 8.85333 62.3359 9.504C62.7093 10.144 62.8959 10.896 62.8959 11.76C62.8959 12.624 62.7093 13.3813 62.3359 14.032C61.9626 14.6827 61.4559 15.1893 60.8159 15.552C60.1759 15.9147 59.4399 16.096 58.6079 16.096ZM54.1119 19.104V7.52H55.5839V9.808L55.4879 11.776L55.6479 13.744V19.104H54.1119ZM58.4799 14.752C59.0239 14.752 59.5093 14.6293 59.9359 14.384C60.3733 14.1387 60.7146 13.792 60.9599 13.344C61.2159 12.8853 61.3439 12.3573 61.3439 11.76C61.3439 11.152 61.2159 10.6293 60.9599 10.192C60.7146 9.744 60.3733 9.39733 59.9359 9.152C59.5093 8.90667 59.0239 8.784 58.4799 8.784C57.9466 8.784 57.4613 8.90667 57.0239 9.152C56.5973 9.39733 56.2559 9.744 55.9999 10.192C55.7546 10.6293 55.6319 11.152 55.6319 11.76C55.6319 12.3573 55.7546 12.8853 55.9999 13.344C56.2559 13.792 56.5973 14.1387 57.0239 14.384C57.4613 14.6293 57.9466 14.752 58.4799 14.752ZM69.2262 7.44C69.9195 7.44 70.5275 7.57333 71.0502 7.84C71.5835 8.10667 71.9995 8.512 72.2982 9.056C72.5969 9.6 72.7462 10.288 72.7462 11.12V16H71.2102V11.296C71.2102 10.4747 71.0075 9.856 70.6022 9.44C70.2075 9.024 69.6475 8.816 68.9222 8.816C68.3782 8.816 67.9035 8.92267 67.4982 9.136C67.0929 9.34933 66.7782 9.664 66.5542 10.08C66.3409 10.496 66.2342 11.0133 66.2342 11.632V16H64.6982V4.128H66.2342V9.808L65.9302 9.2C66.2075 8.64533 66.6342 8.21333 67.2102 7.904C67.7862 7.59467 68.4582 7.44 69.2262 7.44ZM78.9008 16.096C78.0475 16.096 77.2901 15.9093 76.6288 15.536C75.9675 15.1627 75.4448 14.6507 75.0608 14C74.6768 13.3387 74.4848 12.592 74.4848 11.76C74.4848 10.9173 74.6768 10.1707 75.0608 9.52C75.4448 8.86933 75.9675 8.36267 76.6288 8C77.2901 7.62667 78.0475 7.44 78.9008 7.44C79.7435 7.44 80.4955 7.62667 81.1568 8C81.8288 8.36267 82.3515 8.86933 82.7248 9.52C83.1088 10.16 83.3008 10.9067 83.3008 11.76C83.3008 12.6027 83.1088 13.3493 82.7248 14C82.3515 14.6507 81.8288 15.1627 81.1568 15.536C80.4955 15.9093 79.7435 16.096 78.9008 16.096ZM78.9008 14.752C79.4448 14.752 79.9301 14.6293 80.3568 14.384C80.7941 14.1387 81.1355 13.792 81.3808 13.344C81.6261 12.8853 81.7488 12.3573 81.7488 11.76C81.7488 11.152 81.6261 10.6293 81.3808 10.192C81.1355 9.744 80.7941 9.39733 80.3568 9.152C79.9301 8.90667 79.4448 8.784 78.9008 8.784C78.3568 8.784 77.8715 8.90667 77.4448 9.152C77.0181 9.39733 76.6768 9.744 76.4208 10.192C76.1648 10.6293 76.0368 11.152 76.0368 11.76C76.0368 12.3573 76.1648 12.8853 76.4208 13.344C76.6768 13.792 77.0181 14.1387 77.4448 14.384C77.8715 14.6293 78.3568 14.752 78.9008 14.752ZM88.0171 16.096C87.1637 16.096 86.5024 15.8667 86.0331 15.408C85.5637 14.9493 85.3291 14.2933 85.3291 13.44V5.664H86.8651V13.376C86.8651 13.8347 86.9771 14.1867 87.2011 14.432C87.4357 14.6773 87.7664 14.8 88.1931 14.8C88.6731 14.8 89.0731 14.6667 89.3931 14.4L89.8731 15.504C89.6384 15.7067 89.3557 15.856 89.0251 15.952C88.7051 16.048 88.3691 16.096 88.0171 16.096ZM83.8891 8.784V7.52H89.2971V8.784H83.8891ZM94.7608 16.096C93.9075 16.096 93.1501 15.9093 92.4888 15.536C91.8275 15.1627 91.3048 14.6507 90.9208 14C90.5368 13.3387 90.3448 12.592 90.3448 11.76C90.3448 10.9173 90.5368 10.1707 90.9208 9.52C91.3048 8.86933 91.8275 8.36267 92.4888 8C93.1501 7.62667 93.9075 7.44 94.7608 7.44C95.6035 7.44 96.3555 7.62667 97.0168 8C97.6888 8.36267 98.2115 8.86933 98.5848 9.52C98.9688 10.16 99.1608 10.9067 99.1608 11.76C99.1608 12.6027 98.9688 13.3493 98.5848 14C98.2115 14.6507 97.6888 15.1627 97.0168 15.536C96.3555 15.9093 95.6035 16.096 94.7608 16.096ZM94.7608 14.752C95.3048 14.752 95.7901 14.6293 96.2168 14.384C96.6541 14.1387 96.9955 13.792 97.2408 13.344C97.4861 12.8853 97.6088 12.3573 97.6088 11.76C97.6088 11.152 97.4861 10.6293 97.2408 10.192C96.9955 9.744 96.6541 9.39733 96.2168 9.152C95.7901 8.90667 95.3048 8.784 94.7608 8.784C94.2168 8.784 93.7315 8.90667 93.3048 9.152C92.8781 9.39733 92.5368 9.744 92.2808 10.192C92.0248 10.6293 91.8968 11.152 91.8968 11.76C91.8968 12.3573 92.0248 12.8853 92.2808 13.344C92.5368 13.792 92.8781 14.1387 93.3048 14.384C93.7315 14.6293 94.2168 14.752 94.7608 14.752ZM103.397 16.096C102.693 16.096 102.021 16 101.381 15.808C100.752 15.616 100.256 15.3813 99.8931 15.104L100.533 13.888C100.896 14.1333 101.344 14.3413 101.877 14.512C102.41 14.6827 102.954 14.768 103.509 14.768C104.224 14.768 104.736 14.6667 105.045 14.464C105.365 14.2613 105.525 13.9787 105.525 13.616C105.525 13.3493 105.429 13.1413 105.237 12.992C105.045 12.8427 104.789 12.7307 104.469 12.656C104.16 12.5813 103.813 12.5173 103.429 12.464C103.045 12.4 102.661 12.3253 102.277 12.24C101.893 12.144 101.541 12.016 101.221 11.856C100.901 11.6853 100.645 11.456 100.453 11.168C100.261 10.8693 100.165 10.4747 100.165 9.984C100.165 9.472 100.309 9.024 100.597 8.64C100.885 8.256 101.29 7.96267 101.813 7.76C102.346 7.54667 102.976 7.44 103.701 7.44C104.256 7.44 104.816 7.50933 105.381 7.648C105.957 7.776 106.426 7.96267 106.789 8.208L106.133 9.424C105.749 9.168 105.349 8.992 104.933 8.896C104.517 8.8 104.101 8.752 103.685 8.752C103.013 8.752 102.512 8.864 102.181 9.088C101.85 9.30133 101.685 9.57867 101.685 9.92C101.685 10.208 101.781 10.432 101.973 10.592C102.176 10.7413 102.432 10.8587 102.741 10.944C103.061 11.0293 103.413 11.104 103.797 11.168C104.181 11.2213 104.565 11.296 104.949 11.392C105.333 11.4773 105.68 11.6 105.989 11.76C106.309 11.92 106.565 12.144 106.757 12.432C106.96 12.72 107.061 13.104 107.061 13.584C107.061 14.096 106.912 14.5387 106.613 14.912C106.314 15.2853 105.893 15.5787 105.349 15.792C104.805 15.9947 104.154 16.096 103.397 16.096Z" fill="white"/>
<path d="M37.4753 18H107.525V18.8H37.4753V18Z" fill="white"/>
<rect x="4.5" y="4.5" width="17" height="12" rx="1.5" stroke="white"/>
<path fill-rule="evenodd" clip-rule="evenodd" d="M3 8H2C0.895431 8 0 8.89543 0 10V19C0 20.1046 0.89543 21 2 21H16C17.1046 21 18 20.1046 18 19V18H17V19C17 19.5523 16.5523 20 16 20H2C1.44772 20 1 19.5523 1 19V10C1 9.44772 1.44772 9 2 9H3V8Z" fill="white"/>
<path d="M9.0798 10.9044L7.6966 12.2947C7.06911 12.9254 7.51584 14 8.40551 14H18C18.5523 14 19 13.5523 19 13V10.1606C19 9.92756 18.9186 9.7018 18.7698 9.52238L17.4155 7.88888C17.0268 7.41997 16.3126 7.40459 15.904 7.85634L12.6687 11.4335C12.3133 11.8264 11.7132 11.874 11.3004 11.542L10.4154 10.8304C10.0168 10.5099 9.44054 10.5418 9.0798 10.9044Z" fill="white"/>
</svg>
