<svg width="107" height="21" viewBox="0 0 107 21" fill="none" xmlns="http://www.w3.org/2000/svg">
<path d="M42.7452 16.128C41.8706 16.128 41.0866 15.904 40.3932 15.456C39.7106 15.008 39.1666 14.3573 38.7612 13.504C38.3666 12.6507 38.1692 11.616 38.1692 10.4C38.1692 9.184 38.3666 8.14933 38.7612 7.296C39.1666 6.44267 39.7106 5.792 40.3932 5.344C41.0866 4.896 41.8706 4.672 42.7452 4.672C43.6092 4.672 44.3879 4.896 45.0812 5.344C45.7746 5.792 46.3186 6.44267 46.7132 7.296C47.1079 8.14933 47.3052 9.184 47.3052 10.4C47.3052 11.616 47.1079 12.6507 46.7132 13.504C46.3186 14.3573 45.7746 15.008 45.0812 15.456C44.3879 15.904 43.6092 16.128 42.7452 16.128ZM42.7452 14.704C43.3319 14.704 43.8439 14.544 44.2812 14.224C44.7292 13.904 45.0759 13.424 45.3212 12.784C45.5772 12.144 45.7052 11.3493 45.7052 10.4C45.7052 9.45067 45.5772 8.656 45.3212 8.016C45.0759 7.376 44.7292 6.896 44.2812 6.576C43.8439 6.256 43.3319 6.096 42.7452 6.096C42.1586 6.096 41.6412 6.256 41.1932 6.576C40.7452 6.896 40.3932 7.376 40.1372 8.016C39.8919 8.656 39.7692 9.45067 39.7692 10.4C39.7692 11.3493 39.8919 12.144 40.1372 12.784C40.3932 13.424 40.7452 13.904 41.1932 14.224C41.6412 14.544 42.1586 14.704 42.7452 14.704ZM57.682 16.096C56.978 16.096 56.3327 15.936 55.746 15.616C55.17 15.2853 54.706 14.8 54.354 14.16C54.0127 13.52 53.842 12.72 53.842 11.76C53.842 10.8 54.0073 10 54.338 9.36C54.6793 8.72 55.138 8.24 55.714 7.92C56.3007 7.6 56.9567 7.44 57.682 7.44C58.514 7.44 59.25 7.62133 59.89 7.984C60.53 8.34667 61.0367 8.85333 61.41 9.504C61.7833 10.144 61.97 10.896 61.97 11.76C61.97 12.624 61.7833 13.3813 61.41 14.032C61.0367 14.6827 60.53 15.1893 59.89 15.552C59.25 15.9147 58.514 16.096 57.682 16.096ZM53.186 19.104V7.52H54.658V9.808L54.562 11.776L54.722 13.744V19.104H53.186ZM57.554 14.752C58.098 14.752 58.5833 14.6293 59.01 14.384C59.4473 14.1387 59.7887 13.792 60.034 13.344C60.29 12.8853 60.418 12.3573 60.418 11.76C60.418 11.152 60.29 10.6293 60.034 10.192C59.7887 9.744 59.4473 9.39733 59.01 9.152C58.5833 8.90667 58.098 8.784 57.554 8.784C57.0207 8.784 56.5353 8.90667 56.098 9.152C55.6713 9.39733 55.33 9.744 55.074 10.192C54.8287 10.6293 54.706 11.152 54.706 11.76C54.706 12.3573 54.8287 12.8853 55.074 13.344C55.33 13.792 55.6713 14.1387 56.098 14.384C56.5353 14.6293 57.0207 14.752 57.554 14.752ZM68.3002 7.44C68.9936 7.44 69.6016 7.57333 70.1242 7.84C70.6576 8.10667 71.0736 8.512 71.3722 9.056C71.6709 9.6 71.8202 10.288 71.8202 11.12V16H70.2842V11.296C70.2842 10.4747 70.0816 9.856 69.6762 9.44C69.2816 9.024 68.7216 8.816 67.9962 8.816C67.4522 8.816 66.9776 8.92267 66.5722 9.136C66.1669 9.34933 65.8522 9.664 65.6282 10.08C65.4149 10.496 65.3082 11.0133 65.3082 11.632V16H63.7722V4.128H65.3082V9.808L65.0042 9.2C65.2816 8.64533 65.7082 8.21333 66.2842 7.904C66.8602 7.59467 67.5322 7.44 68.3002 7.44ZM77.9749 16.096C77.1215 16.096 76.3642 15.9093 75.7029 15.536C75.0415 15.1627 74.5189 14.6507 74.1349 14C73.7509 13.3387 73.5589 12.592 73.5589 11.76C73.5589 10.9173 73.7509 10.1707 74.1349 9.52C74.5189 8.86933 75.0415 8.36267 75.7029 8C76.3642 7.62667 77.1215 7.44 77.9749 7.44C78.8175 7.44 79.5695 7.62667 80.2309 8C80.9029 8.36267 81.4255 8.86933 81.7989 9.52C82.1829 10.16 82.3749 10.9067 82.3749 11.76C82.3749 12.6027 82.1829 13.3493 81.7989 14C81.4255 14.6507 80.9029 15.1627 80.2309 15.536C79.5695 15.9093 78.8175 16.096 77.9749 16.096ZM77.9749 14.752C78.5189 14.752 79.0042 14.6293 79.4309 14.384C79.8682 14.1387 80.2095 13.792 80.4549 13.344C80.7002 12.8853 80.8229 12.3573 80.8229 11.76C80.8229 11.152 80.7002 10.6293 80.4549 10.192C80.2095 9.744 79.8682 9.39733 79.4309 9.152C79.0042 8.90667 78.5189 8.784 77.9749 8.784C77.4309 8.784 76.9455 8.90667 76.5189 9.152C76.0922 9.39733 75.7509 9.744 75.4949 10.192C75.2389 10.6293 75.1109 11.152 75.1109 11.76C75.1109 12.3573 75.2389 12.8853 75.4949 13.344C75.7509 13.792 76.0922 14.1387 76.5189 14.384C76.9455 14.6293 77.4309 14.752 77.9749 14.752ZM87.0911 16.096C86.2378 16.096 85.5765 15.8667 85.1071 15.408C84.6378 14.9493 84.4031 14.2933 84.4031 13.44V5.664H85.9391V13.376C85.9391 13.8347 86.0511 14.1867 86.2751 14.432C86.5098 14.6773 86.8405 14.8 87.2671 14.8C87.7471 14.8 88.1471 14.6667 88.4671 14.4L88.9471 15.504C88.7125 15.7067 88.4298 15.856 88.0991 15.952C87.7791 16.048 87.4431 16.096 87.0911 16.096ZM82.9631 8.784V7.52H88.3711V8.784H82.9631ZM93.8349 16.096C92.9815 16.096 92.2242 15.9093 91.5629 15.536C90.9015 15.1627 90.3789 14.6507 89.9949 14C89.6109 13.3387 89.4189 12.592 89.4189 11.76C89.4189 10.9173 89.6109 10.1707 89.9949 9.52C90.3789 8.86933 90.9015 8.36267 91.5629 8C92.2242 7.62667 92.9815 7.44 93.8349 7.44C94.6775 7.44 95.4295 7.62667 96.0909 8C96.7629 8.36267 97.2855 8.86933 97.6589 9.52C98.0429 10.16 98.2349 10.9067 98.2349 11.76C98.2349 12.6027 98.0429 13.3493 97.6589 14C97.2855 14.6507 96.7629 15.1627 96.0909 15.536C95.4295 15.9093 94.6775 16.096 93.8349 16.096ZM93.8349 14.752C94.3789 14.752 94.8642 14.6293 95.2909 14.384C95.7282 14.1387 96.0695 13.792 96.3149 13.344C96.5602 12.8853 96.6829 12.3573 96.6829 11.76C96.6829 11.152 96.5602 10.6293 96.3149 10.192C96.0695 9.744 95.7282 9.39733 95.2909 9.152C94.8642 8.90667 94.3789 8.784 93.8349 8.784C93.2909 8.784 92.8055 8.90667 92.3789 9.152C91.9522 9.39733 91.6109 9.744 91.3549 10.192C91.0989 10.6293 90.9709 11.152 90.9709 11.76C90.9709 12.3573 91.0989 12.8853 91.3549 13.344C91.6109 13.792 91.9522 14.1387 92.3789 14.384C92.8055 14.6293 93.2909 14.752 93.8349 14.752ZM102.471 16.096C101.767 16.096 101.095 16 100.455 15.808C99.8258 15.616 99.3298 15.3813 98.9671 15.104L99.6071 13.888C99.9698 14.1333 100.418 14.3413 100.951 14.512C101.484 14.6827 102.028 14.768 102.583 14.768C103.298 14.768 103.81 14.6667 104.119 14.464C104.439 14.2613 104.599 13.9787 104.599 13.616C104.599 13.3493 104.503 13.1413 104.311 12.992C104.119 12.8427 103.863 12.7307 103.543 12.656C103.234 12.5813 102.887 12.5173 102.503 12.464C102.119 12.4 101.735 12.3253 101.351 12.24C100.967 12.144 100.615 12.016 100.295 11.856C99.9751 11.6853 99.7191 11.456 99.5271 11.168C99.3351 10.8693 99.2391 10.4747 99.2391 9.984C99.2391 9.472 99.3831 9.024 99.6711 8.64C99.9591 8.256 100.364 7.96267 100.887 7.76C101.42 7.54667 102.05 7.44 102.775 7.44C103.33 7.44 103.89 7.50933 104.455 7.648C105.031 7.776 105.5 7.96267 105.863 8.208L105.207 9.424C104.823 9.168 104.423 8.992 104.007 8.896C103.591 8.8 103.175 8.752 102.759 8.752C102.087 8.752 101.586 8.864 101.255 9.088C100.924 9.30133 100.759 9.57867 100.759 9.92C100.759 10.208 100.855 10.432 101.047 10.592C101.25 10.7413 101.506 10.8587 101.815 10.944C102.135 11.0293 102.487 11.104 102.871 11.168C103.255 11.2213 103.639 11.296 104.023 11.392C104.407 11.4773 104.754 11.6 105.063 11.76C105.383 11.92 105.639 12.144 105.831 12.432C106.034 12.72 106.135 13.104 106.135 13.584C106.135 14.096 105.986 14.5387 105.687 14.912C105.388 15.2853 104.967 15.5787 104.423 15.792C103.879 15.9947 103.228 16.096 102.471 16.096Z" fill="white"/>
<path d="M37.4012 18H106.599V18.8H37.4012V18Z" fill="white"/>
<rect x="4.5" y="4.5" width="17" height="12" rx="1.5" stroke="white"/>
<path fill-rule="evenodd" clip-rule="evenodd" d="M3 8H2C0.895431 8 0 8.89543 0 10V19C0 20.1046 0.89543 21 2 21H16C17.1046 21 18 20.1046 18 19V18H17V19C17 19.5523 16.5523 20 16 20H2C1.44772 20 1 19.5523 1 19V10C1 9.44772 1.44772 9 2 9H3V8Z" fill="white"/>
<path d="M9.0798 10.9044L7.6966 12.2947C7.06911 12.9254 7.51584 14 8.40551 14H18C18.5523 14 19 13.5523 19 13V10.1606C19 9.92756 18.9186 9.7018 18.7698 9.52238L17.4155 7.88888C17.0268 7.41997 16.3126 7.40459 15.904 7.85634L12.6687 11.4335C12.3133 11.8264 11.7132 11.874 11.3004 11.542L10.4154 10.8304C10.0168 10.5099 9.44054 10.5418 9.0798 10.9044Z" fill="white"/>
</svg>
