<svg width="619" height="559" viewBox="0 0 619 559" fill="none" xmlns="http://www.w3.org/2000/svg">
<path d="M-100.758 264.318C-90.8038 265.422 -65.0068 274.333 -41.4496 301.15C-12.003 334.672 22.7364 362.568 43.5503 386.516C64.3642 410.464 103.281 421.392 85.1647 387.323C67.048 353.255 26.0106 333.276 28.7051 313.738C31.3997 294.199 14.8816 295.173 46.9598 274.084C79.038 252.995 76.0689 238.439 88.4014 226.181C100.734 213.923 106.131 203.1 133.974 182.743C161.817 162.387 177.533 134.474 182.818 100.596C188.103 66.7173 176.559 58.825 197.994 32.7486C219.429 6.67215 237.106 -13.8097 266.803 -30.9551C296.5 -48.1006 350.021 -67.0128 365.792 -88.1067C378.409 -104.982 398.567 -140.711 407.069 -156.466" stroke="white" stroke-opacity="0.14"/>
<path d="M412.58 -144.234L395.026 -121.381C394.91 -121.23 394.826 -121.066 394.774 -120.883C390.4 -105.42 380.691 -72.6916 376.231 -63.3054C370.622 -51.504 339.071 -37.5698 318.584 -30.023C298.097 -22.4763 280.155 1.58307 252.686 31.9998C225.217 62.4165 216.743 54.4639 205.575 66.0496C194.407 77.6352 194.369 127.324 183.681 153.189C172.994 179.055 160.873 190.334 137.057 220.354C113.24 250.375 116.149 239.276 89.6822 257.982C63.2155 276.688 64.4898 289.653 68.2004 305.493C71.911 321.333 94.1892 338.228 105.651 370.358C111.172 385.837 112.15 391.912 109.682 398.858C108.711 401.593 106.505 408.642 95.8726 413.009C82.5825 418.469 67.5392 419.249 60.4248 423.357C53.3104 427.464 47.5749 436.151 30.5192 419.754C16.8746 406.636 2.70317 404.888 -1.37783e-05 405.5" stroke="white" stroke-opacity="0.14"/>
<path d="M-120.302 234.5C-112.378 234.777 -93.8083 237.357 -82.9206 245.457C-69.3111 255.582 -47.2282 273.66 -34.0938 288.341C-20.9594 303.021 -7.93217 313.483 1.38448 308.104C10.7011 302.725 25.6265 285.544 20.0646 275.911C14.5027 266.277 2.53562 260.342 23.4981 248.239C44.4605 236.137 46.688 249.408 70.6636 221.008C94.6392 192.609 83.1059 222.388 106.227 169.648C129.349 116.909 135.43 91.1338 150.935 64.1995C166.44 37.2652 151.141 44.3854 178.984 24.0288C206.827 3.67216 193.86 18.8654 213.707 -4.58179C233.555 -28.029 207.352 -12.9007 248.112 -36.4337C288.872 -59.9667 298.771 -65.6818 325.557 -81.1463C352.342 -96.6109 350.384 -94.6239 360.28 -109.757C370.176 -124.89 382.187 -149.807 383.086 -156.32C383.804 -161.53 388.181 -174.39 390.279 -180.168" stroke="white" stroke-opacity="0.2"/>
<path d="M-144.51 188.534C-137.593 184.826 -122.054 178.481 -115.233 182.764C-106.708 188.117 -74.0888 206.962 -64.5552 219.44C-57.0242 229.298 -32.5621 235.002 -20.836 236.697C-20.5423 236.74 -20.255 236.695 -19.9934 236.555C-16.6673 234.775 -8.5779 228.6 0.353466 216.218C11.9966 200.076 36.1315 173.297 42.5367 169.599C48.9419 165.901 79.6989 153.281 90.9163 129.679C102.134 106.076 93.9709 73.1115 120.226 55.3841C146.481 37.6566 170.509 6.65798 192.636 -6.11707C214.763 -18.8921 187.341 -9.91019 222.49 -31.0597C257.639 -52.2093 253.933 -49.2138 284.795 -67.0316C315.656 -84.8494 323.119 -93.4396 340.903 -109.702C358.688 -125.964 352.233 -110.249 363.396 -140.67C372.326 -165.007 379.072 -185.686 381.329 -192.983" stroke="white" stroke-opacity="0.2"/>
<path d="M325 -1.49976C285.404 21.3609 288.151 4.67357 275.923 11.7335C263.695 18.7934 255.229 39.0944 231.938 52.5418C208.646 65.9892 210.929 86.0792 208.127 101.398C205.325 116.716 195.066 159.461 185.697 167.439C176.329 175.417 166.968 211.648 162.892 214.002C158.816 216.355 142.303 236.164 144.162 258.211C146.021 280.258 147.56 289.646 141.739 302.425C135.919 315.205 120.777 314.528 120.148 336.299C119.644 353.716 136.253 371.814 144.62 378.686C146.46 379.895 150.255 383.698 150.718 389.249C151.297 396.187 160.659 400.901 149.532 411.752C138.406 422.602 114.637 439.487 113.352 440.545C112.066 441.604 109.897 450.445 83.7492 444.04C57.6013 437.635 58.8702 440.38 50.8072 445.036C44.3567 448.76 6.49409 451.835 -0.499828 452.5" stroke="white" stroke-opacity="0.1"/>
<path d="M433.292 -105.669C430.116 -103.55 422.473 -96.1691 417.309 -83.5971C410.854 -67.8821 416.419 -48.8308 406.471 -31.0987C396.522 -13.3666 386.412 -6.67305 361.008 25.9764C335.604 58.6259 346.082 43.1567 328.405 63.6385C310.727 84.1203 317.135 89.8402 305.813 118.641C294.492 147.442 295.343 162.364 288.306 178.415C281.269 194.466 251.676 206.413 214.992 227.593C178.308 248.773 182.282 261.035 181.175 277.944C180.068 294.853 190.393 296.599 177.799 321.853C165.32 346.878 169.994 361.999 172.606 366.645C172.654 366.732 172.707 366.804 172.772 366.879C176.358 371.007 182.566 381.364 179.43 390.696C175.475 402.465 168.46 406.199 161.977 414.685C155.493 423.171 155.225 439.136 139.042 443.42C122.86 447.704 111.122 458.591 100.13 461.459C89.1383 464.327 77.442 461.594 69.2518 468.22C62.6997 473.52 43 483.5 1.30571e-05 493.5" stroke="white" stroke-opacity="0.1"/>
<path opacity="0.04" d="M440.389 -96.0662C438.06 -94.7214 432.216 -88.4364 427.477 -74.0541C421.552 -56.0762 424.623 -56.1365 415.575 -35.4993C406.528 -14.8621 403.248 -4.40558 378.317 14.2701C353.385 32.9458 359.639 55.8807 344.98 78.9013C330.321 101.922 345.571 106.819 342.244 138.71C338.918 170.601 340.343 156.934 319.911 171.299C299.479 185.665 306.521 188.449 298.004 211.349C289.486 234.249 276.464 242.624 252.59 256.407C228.716 270.191 236.55 262.243 227.027 287.436C219.592 307.105 224.714 331.104 224.965 332.25C224.974 332.287 224.98 332.308 224.99 332.344C225.679 334.643 227.027 342.193 227.027 354.5C227.027 370 225.5 393 208.5 406.5C191.5 420 182.5 431 169 453C155.5 475 162 479.5 130 484.5C98 489.5 74 486 45.5 501.5C22.7 513.9 5.66666 529.334 -1.03923e-05 535.5" stroke="white"/>
</svg>
