<svg width="17" height="19" viewBox="0 0 17 19" fill="none" xmlns="http://www.w3.org/2000/svg">
<path d="M2.97231 6.30354C2.97231 3.37447 5.39915 1 8.39281 1C11.3865 1 13.8133 3.37447 13.8133 6.30354V8.2321C13.8133 9.79694 14.332 11.3195 15.2916 12.5714L15.5028 12.8469C15.5748 12.9407 15.6106 12.9875 15.6315 13.0198C16.0284 13.6332 15.6164 14.4396 14.8767 14.4969C14.8379 14.4999 14.778 14.4999 14.658 14.4999H2.12756C2.0077 14.4999 1.94778 14.4999 1.90891 14.4969C1.16923 14.4396 0.757161 13.6332 1.15408 13.0198C1.17493 12.9875 1.2109 12.9407 1.2828 12.8469L1.49399 12.5714C2.45359 11.3195 2.97231 9.79694 2.97231 8.2321V6.30354Z" stroke="white"/>
<path fill-rule="evenodd" clip-rule="evenodd" d="M5.86791 16.4442C6.13263 16.3798 6.40471 16.5224 6.47564 16.7628C6.58872 17.1461 6.83793 17.4849 7.18454 17.7264C7.53117 17.9679 7.95594 18.0989 8.39284 18.0989C8.82974 18.0989 9.25451 17.9679 9.60114 17.7264C9.94775 17.4849 10.197 17.1461 10.31 16.7629C10.3809 16.5225 10.653 16.3798 10.9177 16.4442C11.1824 16.5086 11.3396 16.7557 11.2686 16.9961C11.0991 17.571 10.7252 18.0791 10.2053 18.4414C9.68532 18.8037 9.0482 19.0001 8.39284 19.0001C7.73748 19.0001 7.10036 18.8037 6.58041 18.4414C6.06044 18.0791 5.68664 17.571 5.51703 16.9961C5.4461 16.7557 5.6032 16.5086 5.86791 16.4442Z" fill="white"/>
</svg>
