<svg width="18" height="18" viewBox="0 0 18 18" fill="none" xmlns="http://www.w3.org/2000/svg">
<path fill-rule="evenodd" clip-rule="evenodd" d="M9 18C13.9706 18 18 13.9706 18 9C18 4.02944 13.9706 0 9 0C4.02944 0 0 4.02944 0 9C0 13.9706 4.02944 18 9 18ZM4.75 13.25V11.0625L10.2017 5.61083L12.3892 7.79833L6.9375 13.25H4.75ZM14.0808 5.28416C14.3083 5.51166 14.3083 5.87916 14.0808 6.10666L13.0133 7.17416L10.8258 4.98666L11.8933 3.91916C12.1208 3.69166 12.4883 3.69166 12.7158 3.91916L14.0808 5.28416Z" fill="#808080"/>
</svg>
