<svg width="33" height="33" viewBox="0 0 33 33" fill="none" xmlns="http://www.w3.org/2000/svg">
<circle cx="16.5" cy="16.5" r="15.75" stroke="white" stroke-width="1.5"/>
<path d="M11.0797 12.3563C11.0797 9.42723 13.5066 7.05273 16.5002 7.05273C19.4939 7.05273 21.9207 9.42723 21.9207 12.3563V14.2849C21.9207 15.8498 22.4394 17.3724 23.399 18.6242L23.6102 18.8997C23.6822 18.9936 23.7181 19.0404 23.739 19.0727C24.1358 19.6861 23.7238 20.4924 22.9841 20.5498C22.9453 20.5528 22.8854 20.5528 22.7654 20.5528H10.235C10.1151 20.5528 10.0552 20.5528 10.0163 20.5498C9.27665 20.4924 8.86458 19.6861 9.2615 19.0727C9.28236 19.0404 9.31832 18.9936 9.39022 18.8997L9.60142 18.6242C10.561 17.3724 11.0797 15.8498 11.0797 14.2849V12.3563Z" stroke="white"/>
<path fill-rule="evenodd" clip-rule="evenodd" d="M13.9753 22.4967C14.24 22.4323 14.5121 22.5749 14.5831 22.8153C14.6961 23.1986 14.9454 23.5374 15.292 23.7789C15.6386 24.0204 16.0634 24.1514 16.5003 24.1514C16.9372 24.1514 17.3619 24.0204 17.7086 23.7789C18.0552 23.5374 18.3044 23.1986 18.4174 22.8153C18.4884 22.5749 18.7604 22.4323 19.0251 22.4967C19.2899 22.5611 19.447 22.8081 19.3761 23.0486C19.2065 23.6235 18.8327 24.1316 18.3127 24.4939C17.7927 24.8562 17.1556 25.0526 16.5003 25.0526C15.8449 25.0526 15.2078 24.8562 14.6878 24.4939C14.1679 24.1316 13.7941 23.6235 13.6245 23.0486C13.5535 22.8082 13.7106 22.5611 13.9753 22.4967Z" fill="white"/>
</svg>
