<svg width="16" height="16" viewBox="0 0 16 16" fill="none" xmlns="http://www.w3.org/2000/svg">
<path d="M7.16021 1.299C7.55421 0.689551 8.44579 0.689551 8.83979 1.299L10.8691 4.43802C11.0041 4.64674 11.2119 4.79773 11.4521 4.86156L15.0646 5.82157C15.766 6.00796 16.0415 6.8559 15.5836 7.41895L13.2253 10.319C13.0685 10.5118 12.9891 10.7561 13.0026 11.0043L13.2059 14.7366C13.2454 15.4613 12.5241 15.9853 11.8471 15.7239L8.36029 14.3772C8.12844 14.2876 7.87156 14.2876 7.63971 14.3772L4.15287 15.7239C3.47589 15.9853 2.75459 15.4613 2.79406 14.7366L2.99736 11.0043C3.01088 10.7561 2.9315 10.5118 2.77469 10.319L0.416404 7.41895C-0.0414625 6.8559 0.234049 6.00796 0.935422 5.82157L4.54791 4.86156C4.78811 4.79773 4.99593 4.64674 5.13087 4.43802L7.16021 1.299Z" fill="#808080"/>
</svg>
