<svg width="24" height="24" viewBox="0 0 24 24" fill="none" xmlns="http://www.w3.org/2000/svg">
<path d="M22.4692 9.43594C22.4003 9.21475 22.2192 9.05675 21.9994 9.02064L15.448 8.04557L12.4999 1.83856C12.4007 1.63091 12.1982 1.5 11.9783 1.5C11.7585 1.5 11.5559 1.63091 11.4568 1.84308L8.54746 8.06814L1.99604 9.08835C1.77622 9.12446 1.59519 9.28246 1.52623 9.50365C1.45727 9.72485 1.51761 9.96861 1.67709 10.1266L6.43118 14.9523L5.33209 21.7868C5.2933 22.017 5.38381 22.2472 5.56484 22.3826C5.66397 22.4594 5.78466 22.5 5.90534 22.5C6.00016 22.5 6.09068 22.4774 6.17688 22.4278L12.0257 19.1821L17.8919 22.3917C17.9781 22.4368 18.0686 22.4594 18.1591 22.4594C18.478 22.4594 18.741 22.184 18.741 21.85C18.741 21.8003 18.7366 21.7552 18.7237 21.71L17.5901 14.9162L22.3141 10.0634C22.4822 9.9009 22.5382 9.65714 22.4692 9.43594ZM16.5643 14.2706C16.4264 14.4106 16.3661 14.6137 16.4005 14.8123L17.3876 20.7395L12.293 17.9542C12.1249 17.8594 11.9223 17.8639 11.7499 17.9542L6.67255 20.7711L7.62509 14.8349C7.65526 14.6363 7.59492 14.4377 7.45699 14.2977L3.33649 10.1086L9.02158 9.22377C9.21122 9.19217 9.37501 9.07029 9.4569 8.88972L11.9826 3.48624L14.5429 8.87618C14.6291 9.05675 14.7929 9.17863 14.9825 9.21023L20.6719 10.0589L16.5643 14.2706Z" fill="#FFC107"/>
<path d="M16.5643 14.2706C16.4264 14.4106 16.3661 14.6137 16.4005 14.8123L17.3876 20.7395L12.293 17.9542C12.1249 17.8594 11.9223 17.8639 11.7499 17.9542L6.67255 20.7711L7.62509 14.8349C7.65526 14.6363 7.59492 14.4377 7.45699 14.2977L3.33649 10.1086L9.02158 9.22377C9.21122 9.19217 9.37501 9.07029 9.4569 8.88972L11.9826 3.48624L14.5429 8.87618C14.6291 9.05675 14.7929 9.17863 14.9825 9.21023L20.6719 10.0589L16.5643 14.2706Z" fill="#FFC107"/>
<mask id="mask0_203_23477" style="mask-type:alpha" maskUnits="userSpaceOnUse" x="1" y="1" width="22" height="22">
<path d="M22.4692 9.43594C22.4003 9.21475 22.2192 9.05675 21.9994 9.02064L15.448 8.04557L12.4999 1.83856C12.4007 1.63091 12.1982 1.5 11.9783 1.5C11.7585 1.5 11.5559 1.63091 11.4568 1.84308L8.54746 8.06814L1.99604 9.08835C1.77622 9.12446 1.59519 9.28246 1.52623 9.50365C1.45727 9.72485 1.51761 9.96861 1.67709 10.1266L6.43118 14.9523L5.33209 21.7868C5.2933 22.017 5.38381 22.2472 5.56484 22.3826C5.66397 22.4594 5.78466 22.5 5.90534 22.5C6.00016 22.5 6.09068 22.4774 6.17688 22.4278L12.0257 19.1821L17.8919 22.3917C17.9781 22.4368 18.0686 22.4594 18.1591 22.4594C18.478 22.4594 18.741 22.184 18.741 21.85C18.741 21.8003 18.7366 21.7552 18.7237 21.71L17.5901 14.9162L22.3141 10.0634C22.4822 9.9009 22.5382 9.65714 22.4692 9.43594ZM16.5643 14.2706C16.4264 14.4106 16.3661 14.6137 16.4005 14.8123L17.3876 20.7395L12.293 17.9542C12.1249 17.8594 11.9223 17.8639 11.7499 17.9542L6.67255 20.7711L7.62509 14.8349C7.65526 14.6363 7.59492 14.4377 7.45699 14.2977L3.33649 10.1086L9.02158 9.22377C9.21122 9.19217 9.37501 9.07029 9.4569 8.88972L11.9826 3.48624L14.5429 8.87618C14.6291 9.05675 14.7929 9.17863 14.9825 9.21023L20.6719 10.0589L16.5643 14.2706Z" fill="#FFC107"/>
<path d="M16.5643 14.2706C16.4264 14.4106 16.3661 14.6137 16.4005 14.8123L17.3876 20.7395L12.293 17.9542C12.1249 17.8594 11.9223 17.8639 11.7499 17.9542L6.67255 20.7711L7.62509 14.8349C7.65526 14.6363 7.59492 14.4377 7.45699 14.2977L3.33649 10.1086L9.02158 9.22377C9.21122 9.19217 9.37501 9.07029 9.4569 8.88972L11.9826 3.48624L14.5429 8.87618C14.6291 9.05675 14.7929 9.17863 14.9825 9.21023L20.6719 10.0589L16.5643 14.2706Z" fill="#FFC107"/>
</mask>
<g mask="url(#mask0_203_23477)">
<rect opacity="0.8" x="-1" y="-24" width="31" height="52" fill="#212530"/>
</g>
</svg>
