<svg width="22" height="22" viewBox="0 0 22 22" fill="none" xmlns="http://www.w3.org/2000/svg">
<path d="M21.9692 8.43594C21.9003 8.21475 21.7192 8.05675 21.4994 8.02064L14.948 7.04557L11.9999 0.838564C11.9007 0.630911 11.6982 0.5 11.4783 0.5C11.2585 0.5 11.0559 0.630911 10.9568 0.843078L8.04746 7.06814L1.49604 8.08835C1.27622 8.12446 1.09519 8.28246 1.02623 8.50365C0.95727 8.72485 1.01761 8.96861 1.17709 9.12661L5.93118 13.9523L4.83209 20.7868C4.7933 21.017 4.88381 21.2472 5.06484 21.3826C5.16397 21.4594 5.28466 21.5 5.40534 21.5C5.50016 21.5 5.59068 21.4774 5.67688 21.4278L11.5257 18.1821L17.3919 21.3917C17.4781 21.4368 17.5686 21.4594 17.6591 21.4594C17.978 21.4594 18.241 21.184 18.241 20.85C18.241 20.8003 18.2366 20.7552 18.2237 20.71L17.0901 13.9162L21.8141 9.06341C21.9822 8.9009 22.0382 8.65714 21.9692 8.43594ZM16.0643 13.2706C15.9264 13.4106 15.8661 13.6137 15.9005 13.8123L16.8876 19.7395L11.793 16.9542C11.6249 16.8594 11.4223 16.8639 11.2499 16.9542L6.17255 19.7711L7.12509 13.8349C7.15526 13.6363 7.09492 13.4377 6.95699 13.2977L2.83649 9.10855L8.52158 8.22377C8.71122 8.19217 8.87501 8.07029 8.9569 7.88972L11.4826 2.48624L14.0429 7.87618C14.1291 8.05675 14.2929 8.17863 14.4825 8.21023L20.1719 9.0589L16.0643 13.2706Z" fill="#FFC107"/>
<path d="M16.0643 13.2706C15.9264 13.4106 15.8661 13.6137 15.9005 13.8123L16.8876 19.7395L11.793 16.9542C11.6249 16.8594 11.4223 16.8639 11.2499 16.9542L6.17255 19.7711L7.12509 13.8349C7.15526 13.6363 7.09492 13.4377 6.95699 13.2977L2.83649 9.10855L8.52158 8.22377C8.71122 8.19217 8.87501 8.07029 8.9569 7.88972L11.4826 2.48624L14.0429 7.87618C14.1291 8.05675 14.2929 8.17863 14.4825 8.21023L20.1719 9.0589L16.0643 13.2706Z" fill="#FFC107"/>
</svg>
